0
SECTION
2
HEADER
9
$INSUNITS
70
4
9
$ACADVER
1
AC1014
9
$HANDSEED
5
FFFF
0
ENDSEC
0
SECTION
2
TABLES
0
TABLE
2
VPORT
5
8
100
AcDbSymbolTable
0
ENDTAB
0
TABLE
2
LTYPE
5
5
100
AcDbSymbolTable
0
LTYPE
5
14
100
AcDbSymbolTableRecord
100
AcDbLinetypeTableRecord
2
BYBLOCK
70
0
0
LTYPE
5
15
100
AcDbSymbolTableRecord
100
AcDbLinetypeTableRecord
2
BYLAYER
70
0
0
ENDTAB
0
TABLE
2
LAYER
5
2
100
AcDbSymbolTable
70
2
0
LAYER
5
50
100
AcDbSymbolTableRecord
100
AcDbLayerTableRecord
2
0
70
0
6
CONTINUOUS
0
ENDTAB
0
TABLE
2
STYLE
5
3
100
AcDbSymbolTable
70
1
0
STYLE
5
11
100
AcDbSymbolTableRecord
100
AcDbTextStyleTableRecord
2
STANDARD
70
0
0
ENDTAB
0
TABLE
2
VIEW
5
6
100
AcDbSymbolTable
70
0
0
ENDTAB
0
TABLE
2
UCS
5
7
100
AcDbSymbolTable
70
0
0
ENDTAB
0
TABLE
2
APPID
5
9
100
AcDbSymbolTable
70
2
0
APPID
5
12
100
AcDbSymbolTableRecord
100
AcDbRegAppTableRecord
2
ACAD
70
0
0
ENDTAB
0
TABLE
2
DIMSTYLE
5
A
100
AcDbSymbolTable
70
1
0
ENDTAB
0
TABLE
2
BLOCK_RECORD
5
1
100
AcDbSymbolTable
70
1
0
BLOCK_RECORD
5
1F
100
AcDbSymbolTableRecord
100
AcDbBlockTableRecord
2
*MODEL_SPACE
0
BLOCK_RECORD
5
1B
100
AcDbSymbolTableRecord
100
AcDbBlockTableRecord
2
*PAPER_SPACE
0
ENDTAB
0
ENDSEC
0
SECTION
2
BLOCKS
0
BLOCK
5
20
100
AcDbEntity
100
AcDbBlockBegin
2
*MODEL_SPACE
0
ENDBLK
5
21
100
AcDbEntity
100
AcDbBlockEnd
0
BLOCK
5
1C
100
AcDbEntity
100
AcDbBlockBegin
2
*PAPER_SPACE
0
ENDBLK
5
1D
100
AcDbEntity
100
AcDbBlockEnd
0
ENDSEC
0
SECTION
2
ENTITIES
0
ARC
5
100
100
AcDbEntity
8
0
100
AcDbCircle
10
-29.218750000000036
20
3.0249999999998778
30
0
40
0.49999999999998934
210
-0
220
0
230
1
100
AcDbArc
50
-90
51
0
0
LINE
5
101
100
AcDbEntity
8
0
100
AcDbLine
10
-28.718750000000028
20
16.024999999999885
30
0
11
-28.718750000000046
21
3.0249999999998778
31
0
0
ARC
5
102
100
AcDbEntity
8
0
100
AcDbCircle
10
-29.218750000000036
20
16.024999999999885
30
0
40
0.50000000000000711
210
0
220
-0
230
1
100
AcDbArc
50
0
51
90
0
LINE
5
103
100
AcDbEntity
8
0
100
AcDbLine
10
-42.218750000000043
20
16.524999999999892
30
0
11
-29.218750000000036
21
16.524999999999892
31
0
0
ARC
5
104
100
AcDbEntity
8
0
100
AcDbCircle
10
-42.218750000000043
20
16.024999999999885
30
0
40
0.50000000000000711
210
-0
220
0
230
1
100
AcDbArc
50
90
51
180
0
LINE
5
105
100
AcDbEntity
8
0
100
AcDbLine
10
-42.71875000000005
20
3.0249999999998778
30
0
11
-42.71875000000005
21
16.024999999999885
31
0
0
ARC
5
106
100
AcDbEntity
8
0
100
AcDbCircle
10
-42.218750000000043
20
3.0249999999998778
30
0
40
0.50000000000000711
210
0
220
0
230
1
100
AcDbArc
50
180
51
270
0
LINE
5
107
100
AcDbEntity
8
0
100
AcDbLine
10
-29.218750000000036
20
2.5249999999998884
30
0
11
-42.218750000000043
21
2.5249999999998707
31
0
0
LINE
5
108
100
AcDbEntity
8
0
100
AcDbLine
10
-61.26875000000004
20
16.524999999999892
30
0
11
-48.268750000000047
21
16.524999999999892
31
0
0
ARC
5
109
100
AcDbEntity
8
0
100
AcDbCircle
10
-48.268750000000047
20
16.024999999999885
30
0
40
0.50000000000000711
210
0
220
-0
230
1
100
AcDbArc
50
0
51
90
0
LINE
5
110
100
AcDbEntity
8
0
100
AcDbLine
10
-47.76875000000004
20
16.024999999999885
30
0
11
-47.76875000000004
21
3.0249999999998778
31
0
0
ARC
5
111
100
AcDbEntity
8
0
100
AcDbCircle
10
-48.268750000000047
20
3.0249999999998778
30
0
40
0.50000000000000711
210
-0
220
0
230
1
100
AcDbArc
50
-90
51
0
0
LINE
5
112
100
AcDbEntity
8
0
100
AcDbLine
10
-48.268750000000047
20
2.5249999999998707
30
0
11
-61.26875000000004
21
2.5249999999998707
31
0
0
ARC
5
113
100
AcDbEntity
8
0
100
AcDbCircle
10
-61.26875000000004
20
3.0249999999998778
30
0
40
0.50000000000000711
210
0
220
0
230
1
100
AcDbArc
50
180
51
270
0
LINE
5
114
100
AcDbEntity
8
0
100
AcDbLine
10
-61.76875000000004
20
3.0249999999998778
30
0
11
-61.76875000000004
21
16.024999999999885
31
0
0
ARC
5
115
100
AcDbEntity
8
0
100
AcDbCircle
10
-61.26875000000004
20
16.024999999999885
30
0
40
0.50000000000000711
210
-0
220
0
230
1
100
AcDbArc
50
90
51
180
0
LINE
5
116
100
AcDbEntity
8
0
100
AcDbLine
10
-51.743750000000048
20
-2.5250000000001194
30
0
11
-38.743750000000041
21
-2.5250000000001194
31
0
0
ARC
5
117
100
AcDbEntity
8
0
100
AcDbCircle
10
-38.743750000000041
20
-3.0250000000001265
30
0
40
0.50000000000000711
210
0
220
-0
230
1
100
AcDbArc
50
0
51
90
0
LINE
5
118
100
AcDbEntity
8
0
100
AcDbLine
10
-38.243750000000034
20
-3.0250000000001265
30
0
11
-38.243750000000034
21
-16.025000000000126
31
0
0
ARC
5
119
100
AcDbEntity
8
0
100
AcDbCircle
10
-38.743750000000041
20
-16.025000000000126
30
0
40
0.50000000000000711
210
-0
220
0
230
1
100
AcDbArc
50
-90
51
0
0
LINE
5
120
100
AcDbEntity
8
0
100
AcDbLine
10
-38.743750000000041
20
-16.525000000000134
30
0
11
-51.743750000000048
21
-16.525000000000123
31
0
0
ARC
5
121
100
AcDbEntity
8
0
100
AcDbCircle
10
-51.743750000000048
20
-16.025000000000126
30
0
40
0.50000000000000711
210
0
220
0
230
1
100
AcDbArc
50
180
51
270
0
LINE
5
122
100
AcDbEntity
8
0
100
AcDbLine
10
-52.243750000000055
20
-16.025000000000126
30
0
11
-52.243750000000055
21
-3.0250000000001265
31
0
0
ARC
5
123
100
AcDbEntity
8
0
100
AcDbCircle
10
-51.743750000000048
20
-3.0250000000001265
30
0
40
0.50000000000000711
210
-0
220
0
230
1
100
AcDbArc
50
90
51
180
0
ARC
5
124
100
AcDbEntity
8
0
100
AcDbCircle
10
-92.225000000000037
20
-16.025000000000126
30
0
40
0.50000000000000711
210
0
220
0
230
1
100
AcDbArc
50
180
51
270
0
LINE
5
125
100
AcDbEntity
8
0
100
AcDbLine
10
-79.225000000000065
20
-16.525000000000123
30
0
11
-92.225000000000037
21
-16.525000000000123
31
0
0
ARC
5
126
100
AcDbEntity
8
0
100
AcDbCircle
10
-79.225000000000051
20
-16.025000000000126
30
0
40
0.49999999999999822
210
0
220
0
230
1
100
AcDbArc
50
-90.000000000001634
51
0
0
LINE
5
127
100
AcDbEntity
8
0
100
AcDbLine
10
-78.725000000000051
20
-3.0250000000001265
30
0
11
-78.725000000000051
21
-16.025000000000126
31
0
0
ARC
5
128
100
AcDbEntity
8
0
100
AcDbCircle
10
-79.225000000000051
20
-3.0250000000001265
30
0
40
0.50000000000000711
210
0
220
-0
230
1
100
AcDbArc
50
0
51
90.000000000001634
0
LINE
5
129
100
AcDbEntity
8
0
100
AcDbLine
10
-92.225000000000037
20
-2.5250000000001194
30
0
11
-79.225000000000065
21
-2.5250000000001194
31
0
0
ARC
5
130
100
AcDbEntity
8
0
100
AcDbCircle
10
-92.225000000000037
20
-3.0250000000001265
30
0
40
0.50000000000000711
210
0
220
-0
230
1
100
AcDbArc
50
90
51
180
0
LINE
5
131
100
AcDbEntity
8
0
100
AcDbLine
10
-92.725000000000051
20
-16.025000000000126
30
0
11
-92.725000000000051
21
-3.0250000000001265
31
0
0
LINE
5
132
100
AcDbEntity
8
0
100
AcDbLine
10
-56.506250000000051
20
35.574999999999903
30
0
11
-43.506250000000044
21
35.574999999999903
31
0
0
ARC
5
133
100
AcDbEntity
8
0
100
AcDbCircle
10
-43.506250000000044
20
35.074999999999896
30
0
40
0.50000000000000711
210
0
220
-0
230
1
100
AcDbArc
50
0
51
90
0
LINE
5
134
100
AcDbEntity
8
0
100
AcDbLine
10
-43.006250000000037
20
35.074999999999896
30
0
11
-43.006250000000037
21
22.074999999999889
31
0
0
ARC
5
135
100
AcDbEntity
8
0
100
AcDbCircle
10
-43.506250000000044
20
22.074999999999889
30
0
40
0.50000000000000711
210
-0
220
0
230
1
100
AcDbArc
50
-90
51
0
0
LINE
5
136
100
AcDbEntity
8
0
100
AcDbLine
10
-43.506250000000044
20
21.574999999999882
30
0
11
-46.500000000000043
21
21.574999999999882
31
0
0
LINE
5
137
100
AcDbEntity
8
0
100
AcDbLine
10
-46.500000000000043
20
21.574999999999882
30
0
11
-46.500000000000043
21
20.074999999999896
31
0
0
ARC
5
138
100
AcDbEntity
8
0
100
AcDbCircle
10
-47.000000000000043
20
20.074999999999896
30
0
40
0.50000000000000711
210
-0
220
0
230
1
100
AcDbArc
50
-90
51
0
0
LINE
5
139
100
AcDbEntity
8
0
100
AcDbLine
10
-47.000000000000043
20
19.574999999999889
30
0
11
-53.000000000000043
21
19.574999999999889
31
0
0
ARC
5
140
100
AcDbEntity
8
0
100
AcDbCircle
10
-53.000000000000043
20
20.074999999999896
30
0
40
0.50000000000000711
210
0
220
0
230
1
100
AcDbArc
50
180
51
270
0
LINE
5
141
100
AcDbEntity
8
0
100
AcDbLine
10
-53.50000000000005
20
20.074999999999896
30
0
11
-53.50000000000005
21
21.574999999999882
31
0
0
LINE
5
142
100
AcDbEntity
8
0
100
AcDbLine
10
-53.50000000000005
20
21.574999999999882
30
0
11
-56.506250000000051
21
21.574999999999882
31
0
0
ARC
5
143
100
AcDbEntity
8
0
100
AcDbCircle
10
-56.506250000000051
20
22.074999999999889
30
0
40
0.50000000000000711
210
0
220
0
230
1
100
AcDbArc
50
180
51
270
0
LINE
5
144
100
AcDbEntity
8
0
100
AcDbLine
10
-57.006250000000058
20
22.074999999999889
30
0
11
-57.006250000000058
21
35.074999999999896
31
0
0
ARC
5
145
100
AcDbEntity
8
0
100
AcDbCircle
10
-56.506250000000051
20
35.074999999999896
30
0
40
0.50000000000000711
210
-0
220
0
230
1
100
AcDbArc
50
90
51
180
0
ARC
5
146
100
AcDbEntity
8
0
100
AcDbCircle
10
53.031249999999943
20
16.024999999999885
30
0
40
0.50000000000000711
210
-0
220
0
230
1
100
AcDbArc
50
90
51
180
0
LINE
5
147
100
AcDbEntity
8
0
100
AcDbLine
10
52.531249999999936
20
3.0249999999998778
30
0
11
52.531249999999936
21
16.024999999999885
31
0
0
ARC
5
148
100
AcDbEntity
8
0
100
AcDbCircle
10
53.031249999999943
20
3.0249999999998778
30
0
40
0.50000000000000711
210
0
220
0
230
1
100
AcDbArc
50
180
51
270
0
LINE
5
149
100
AcDbEntity
8
0
100
AcDbLine
10
66.031249999999943
20
2.5249999999998707
30
0
11
53.031249999999943
21
2.5249999999998707
31
0
0
ARC
5
150
100
AcDbEntity
8
0
100
AcDbCircle
10
66.031249999999943
20
3.0249999999998778
30
0
40
0.50000000000000711
210
-0
220
0
230
1
100
AcDbArc
50
-90
51
0
0
LINE
5
151
100
AcDbEntity
8
0
100
AcDbLine
10
66.531249999999957
20
16.024999999999885
30
0
11
66.531249999999957
21
3.0249999999998778
31
0
0
ARC
5
152
100
AcDbEntity
8
0
100
AcDbCircle
10
66.031249999999943
20
16.024999999999885
30
0
40
0.50000000000000711
210
0
220
-0
230
1
100
AcDbArc
50
0
51
90
0
LINE
5
153
100
AcDbEntity
8
0
100
AcDbLine
10
53.031249999999943
20
16.524999999999892
30
0
11
66.031249999999943
21
16.524999999999892
31
0
0
ARC
5
154
100
AcDbEntity
8
0
100
AcDbCircle
10
-62.556250000000055
20
35.074999999999896
30
0
40
0.50000000000000711
210
0
220
-0
230
1
100
AcDbArc
50
0
51
90
0
LINE
5
155
100
AcDbEntity
8
0
100
AcDbLine
10
-75.556250000000063
20
35.574999999999903
30
0
11
-62.556250000000055
21
35.574999999999903
31
0
0
ARC
5
156
100
AcDbEntity
8
0
100
AcDbCircle
10
-75.556250000000048
20
35.074999999999896
30
0
40
0.50000000000000711
210
0
220
0
230
1
100
AcDbArc
50
90.000000000001634
51
180
0
LINE
5
157
100
AcDbEntity
8
0
100
AcDbLine
10
-76.056250000000063
20
22.074999999999889
30
0
11
-76.056250000000048
21
35.074999999999875
31
0
0
ARC
5
158
100
AcDbEntity
8
0
100
AcDbCircle
10
-75.556250000000048
20
22.074999999999889
30
0
40
0.50000000000000711
210
0
220
0
230
1
100
AcDbArc
50
180
51
269.99999999999835
0
LINE
5
159
100
AcDbEntity
8
0
100
AcDbLine
10
-62.556250000000055
20
21.574999999999882
30
0
11
-75.556250000000063
21
21.574999999999882
31
0
0
ARC
5
160
100
AcDbEntity
8
0
100
AcDbCircle
10
-62.556250000000055
20
22.074999999999889
30
0
40
0.50000000000000711
210
-0
220
0
230
1
100
AcDbArc
50
-90
51
0
0
LINE
5
161
100
AcDbEntity
8
0
100
AcDbLine
10
-62.056250000000048
20
35.074999999999896
30
0
11
-62.056250000000048
21
22.074999999999889
31
0
0
LINE
5
162
100
AcDbEntity
8
0
100
AcDbLine
10
-81.606251000000043
20
21.574999999999882
30
0
11
-94.606250000000045
21
21.574999999999882
31
0
0
ARC
5
163
100
AcDbEntity
8
0
100
AcDbCircle
10
-94.606250000000045
20
22.074999999999889
30
0
40
0.50000000000000711
210
0
220
0
230
1
100
AcDbArc
50
180
51
270.00000000000324
0
LINE
5
164
100
AcDbEntity
8
0
100
AcDbLine
10
-95.106250000000045
20
22.074999999999889
30
0
11
-95.106250000000045
21
35.074999999999896
31
0
0
ARC
5
165
100
AcDbEntity
8
0
100
AcDbCircle
10
-94.606250000000045
20
35.074999999999896
30
0
40
0.50000000000000711
210
0
220
-0
230
1
100
AcDbArc
50
90
51
180
0
LINE
5
166
100
AcDbEntity
8
0
100
AcDbLine
10
-94.606250000000045
20
35.574999999999903
30
0
11
-81.606251000000043
21
35.574999999999903
31
0
0
ARC
5
167
100
AcDbEntity
8
0
100
AcDbCircle
10
-81.606251000000043
20
35.074999999999896
30
0
40
0.50000000000000711
210
0
220
-0
230
1
100
AcDbArc
50
0
51
90
0
LINE
5
168
100
AcDbEntity
8
0
100
AcDbLine
10
-81.106251000000043
20
35.074999999999896
30
0
11
-81.106251000000043
21
22.074999999999889
31
0
0
ARC
5
169
100
AcDbEntity
8
0
100
AcDbCircle
10
-81.606251000000043
20
22.074999999999889
30
0
40
0.50000000000000711
210
-0
220
0
230
1
100
AcDbArc
50
-90
51
0
0
ARC
5
170
100
AcDbEntity
8
0
100
AcDbCircle
10
-74.462500000000048
20
16.024999999999885
30
0
40
0.49999999999998934
210
0
220
-0
230
1
100
AcDbArc
50
0
51
90.000000000001634
0
LINE
5
171
100
AcDbEntity
8
0
100
AcDbLine
10
-87.462500000000034
20
16.524999999999892
30
0
11
-74.462500000000063
21
16.524999999999874
31
0
0
ARC
5
172
100
AcDbEntity
8
0
100
AcDbCircle
10
-87.462500000000048
20
16.024999999999885
30
0
40
0.50000000000000711
210
0
220
-0
230
1
100
AcDbArc
50
89.99999999999838
51
180
0
LINE
5
173
100
AcDbEntity
8
0
100
AcDbLine
10
-87.962500000000063
20
3.0249999999998778
30
0
11
-87.962500000000034
21
16.024999999999885
31
0
0
ARC
5
174
100
AcDbEntity
8
0
100
AcDbCircle
10
-87.462500000000048
20
3.0249999999998778
30
0
40
0.50000000000000711
210
0
220
0
230
1
100
AcDbArc
50
180
51
270.00000000000159
0
LINE
5
175
100
AcDbEntity
8
0
100
AcDbLine
10
-74.462500000000063
20
2.5249999999998707
30
0
11
-87.462500000000034
21
2.5249999999998707
31
0
0
ARC
5
176
100
AcDbEntity
8
0
100
AcDbCircle
10
-74.462500000000048
20
3.0249999999998778
30
0
40
0.50000000000000711
210
0
220
0
230
1
100
AcDbArc
50
-90.000000000001634
51
0
0
LINE
5
177
100
AcDbEntity
8
0
100
AcDbLine
10
-73.962500000000063
20
16.024999999999885
30
0
11
-73.962500000000063
21
3.0249999999998778
31
0
0
ARC
5
178
100
AcDbEntity
8
0
100
AcDbCircle
10
-57.793750000000053
20
-3.0250000000001265
30
0
40
0.50000000000000711
210
0
220
-0
230
1
100
AcDbArc
50
0
51
90
0
LINE
5
179
100
AcDbEntity
8
0
100
AcDbLine
10
-70.79375000000006
20
-2.5250000000001194
30
0
11
-57.793750000000053
21
-2.5250000000001194
31
0
0
ARC
5
180
100
AcDbEntity
8
0
100
AcDbCircle
10
-70.793750000000045
20
-3.0250000000001265
30
0
40
0.50000000000000711
210
0
220
0
230
1
100
AcDbArc
50
90.000000000001634
51
180
0
LINE
5
181
100
AcDbEntity
8
0
100
AcDbLine
10
-71.293750000000031
20
-16.025000000000126
30
0
11
-71.293750000000031
21
-3.0250000000001265
31
0
0
ARC
5
182
100
AcDbEntity
8
0
100
AcDbCircle
10
-70.793750000000045
20
-16.025000000000126
30
0
40
0.49999999999998934
210
0
220
0
230
1
100
AcDbArc
50
180
51
269.99999999999835
0
LINE
5
183
100
AcDbEntity
8
0
100
AcDbLine
10
-57.793750000000053
20
-16.525000000000134
30
0
11
-70.79375000000006
21
-16.525000000000123
31
0
0
ARC
5
184
100
AcDbEntity
8
0
100
AcDbCircle
10
-57.793750000000053
20
-16.025000000000126
30
0
40
0.50000000000000711
210
-0
220
0
230
1
100
AcDbArc
50
-90
51
0
0
LINE
5
185
100
AcDbEntity
8
0
100
AcDbLine
10
-57.293750000000045
20
-3.0250000000001265
30
0
11
-57.293750000000045
21
-16.025000000000126
31
0
0
ARC
5
186
100
AcDbEntity
8
0
100
AcDbCircle
10
-75.556250000000048
20
-35.075000000000117
30
0
40
0.49999999999999822
210
0
220
0
230
1
100
AcDbArc
50
180
51
269.99999999999835
0
LINE
5
187
100
AcDbEntity
8
0
100
AcDbLine
10
-62.556250000000055
20
-35.575000000000124
30
0
11
-75.556250000000063
21
-35.575000000000117
31
0
0
ARC
5
188
100
AcDbEntity
8
0
100
AcDbCircle
10
-62.556250000000055
20
-35.075000000000117
30
0
40
0.50000000000000711
210
-0
220
0
230
1
100
AcDbArc
50
-90
51
0
0
LINE
5
189
100
AcDbEntity
8
0
100
AcDbLine
10
-62.056250000000048
20
-22.075001000000114
30
0
11
-62.056250000000048
21
-35.075000000000117
31
0
0
ARC
5
190
100
AcDbEntity
8
0
100
AcDbCircle
10
-62.556250000000055
20
-22.075001000000114
30
0
40
0.50000000000000711
210
0
220
-0
230
1
100
AcDbArc
50
0
51
90
0
LINE
5
191
100
AcDbEntity
8
0
100
AcDbLine
10
-75.556250000000063
20
-21.575001000000114
30
0
11
-62.556250000000055
21
-21.575001000000114
31
0
0
ARC
5
192
100
AcDbEntity
8
0
100
AcDbCircle
10
-75.556250000000048
20
-22.075001000000114
30
0
40
0.49999999999999822
210
0
220
0
230
1
100
AcDbArc
50
90.000000000001634
51
180
0
LINE
5
193
100
AcDbEntity
8
0
100
AcDbLine
10
-76.056250000000048
20
-35.075000000000117
30
0
11
-76.056250000000034
21
-22.075001000000114
31
0
0
LINE
5
194
100
AcDbEntity
8
0
100
AcDbLine
10
-95.106250000000045
20
-35.075000000000117
30
0
11
-95.106250000000045
21
-22.075001000000114
31
0
0
ARC
5
195
100
AcDbEntity
8
0
100
AcDbCircle
10
-94.606250000000045
20
-22.075001000000114
30
0
40
0.49999999999999822
210
0
220
-0
230
1
100
AcDbArc
50
90
51
180
0
LINE
5
196
100
AcDbEntity
8
0
100
AcDbLine
10
-94.606250000000045
20
-21.575001000000114
30
0
11
-81.606251000000043
21
-21.575001000000114
31
0
0
ARC
5
197
100
AcDbEntity
8
0
100
AcDbCircle
10
-81.606251000000043
20
-22.075001000000114
30
0
40
0.50000000000000711
210
0
220
-0
230
1
100
AcDbArc
50
0
51
90
0
LINE
5
198
100
AcDbEntity
8
0
100
AcDbLine
10
-81.106251000000043
20
-22.075001000000114
30
0
11
-81.106251000000043
21
-35.075000000000117
31
0
0
ARC
5
199
100
AcDbEntity
8
0
100
AcDbCircle
10
-81.606251000000043
20
-35.075000000000117
30
0
40
0.49999999999999822
210
-0
220
0
230
1
100
AcDbArc
50
-90
51
0
0
LINE
5
200
100
AcDbEntity
8
0
100
AcDbLine
10
-81.606251000000043
20
-35.575000000000117
30
0
11
-94.606250000000045
21
-35.575000000000117
31
0
0
ARC
5
201
100
AcDbEntity
8
0
100
AcDbCircle
10
-94.606250000000045
20
-35.075000000000117
30
0
40
0.50000000000000711
210
0
220
0
230
1
100
AcDbArc
50
180
51
270
0
LINE
5
202
100
AcDbEntity
8
0
100
AcDbLine
10
36.869248999999975
20
34.074999999999882
30
0
11
36.869249999999951
21
20.074999999999896
31
0
0
ARC
5
203
100
AcDbEntity
8
0
100
AcDbCircle
10
36.369248999999968
20
20.074999999999896
30
0
40
0.50000099999998326
210
-0
220
0
230
1
100
AcDbArc
50
-90
51
0
0
LINE
5
204
100
AcDbEntity
8
0
100
AcDbLine
10
36.369248999999968
20
19.574998999999913
30
0
11
30.369248999999954
21
19.574999999999889
31
0
0
ARC
5
205
100
AcDbEntity
8
0
100
AcDbCircle
10
30.369248999999954
20
20.074999999999896
30
0
40
0.50000000000000711
210
0
220
0
230
1
100
AcDbArc
50
180
51
270
0
LINE
5
206
100
AcDbEntity
8
0
100
AcDbLine
10
29.869248999999947
20
20.074999999999896
30
0
11
29.869249999999958
21
21.574999999999882
31
0
0
LINE
5
207
100
AcDbEntity
8
0
100
AcDbLine
10
29.869249999999958
20
21.574999999999882
30
0
11
12.993249999999961
21
21.574999999999882
31
0
0
LINE
5
208
100
AcDbEntity
8
0
100
AcDbLine
10
12.993249999999961
20
21.574999999999882
30
0
11
12.993249999999961
21
20.074999999999896
31
0
0
ARC
5
209
100
AcDbEntity
8
0
100
AcDbCircle
10
12.493249999999954
20
20.074999999999896
30
0
40
0.50000000000000711
210
-0
220
0
230
1
100
AcDbArc
50
-90
51
0
0
LINE
5
210
100
AcDbEntity
8
0
100
AcDbLine
10
12.493249999999954
20
19.574999999999889
30
0
11
6.4932499999999571
21
19.574999999999889
31
0
0
ARC
5
211
100
AcDbEntity
8
0
100
AcDbCircle
10
6.4932499999999571
20
20.074999999999896
30
0
40
0.50000000000000711
210
0
220
0
230
1
100
AcDbArc
50
180
51
270
0
LINE
5
212
100
AcDbEntity
8
0
100
AcDbLine
10
5.99324999999995
20
20.074999999999896
30
0
11
5.9932499999999678
21
21.574999999999882
31
0
0
LINE
5
213
100
AcDbEntity
8
0
100
AcDbLine
10
5.9932499999999678
20
21.574999999999882
30
0
11
-3.6120000000000552
21
21.574999999999882
31
0
0
LINE
5
214
100
AcDbEntity
8
0
100
AcDbLine
10
-3.6120000000000552
20
21.574999999999882
30
0
11
-3.6120000000000374
21
20.074999999999896
31
0
0
ARC
5
215
100
AcDbEntity
8
0
100
AcDbCircle
10
-4.1120000000000445
20
20.074999999999896
30
0
40
0.50000000000000711
210
-0
220
0
230
1
100
AcDbArc
50
-90
51
0
0
LINE
5
216
100
AcDbEntity
8
0
100
AcDbLine
10
-4.1120000000000445
20
19.574999999999889
30
0
11
-10.112000000000059
21
19.574999999999889
31
0
0
ARC
5
217
100
AcDbEntity
8
0
100
AcDbCircle
10
-10.112000000000059
20
20.074999999999896
30
0
40
0.50000000000000711
210
0
220
0
230
1
100
AcDbArc
50
180
51
270
0
LINE
5
218
100
AcDbEntity
8
0
100
AcDbLine
10
-10.612000000000066
20
20.074999999999896
30
0
11
-10.612000000000048
21
21.574999999999882
31
0
0
LINE
5
219
100
AcDbEntity
8
0
100
AcDbLine
10
-10.612000000000048
20
21.574999999999882
30
0
11
-27.488000000000046
21
21.574999999999882
31
0
0
LINE
5
220
100
AcDbEntity
8
0
100
AcDbLine
10
-27.488000000000046
20
21.574999999999882
30
0
11
-27.488000000000028
21
20.074999999999896
31
0
0
ARC
5
221
100
AcDbEntity
8
0
100
AcDbCircle
10
-27.988000000000035
20
20.074999999999896
30
0
40
0.50000000000000711
210
-0
220
0
230
1
100
AcDbArc
50
-90
51
0
0
LINE
5
222
100
AcDbEntity
8
0
100
AcDbLine
10
-27.988000000000035
20
19.574999999999889
30
0
11
-33.988000000000049
21
19.574999999999889
31
0
0
ARC
5
223
100
AcDbEntity
8
0
100
AcDbCircle
10
-33.988000000000049
20
20.074999999999896
30
0
40
0.50000000000000711
210
0
220
0
230
1
100
AcDbArc
50
180
51
270
0
LINE
5
224
100
AcDbEntity
8
0
100
AcDbLine
10
-34.488000000000056
20
20.074999999999896
30
0
11
-34.488000000000056
21
34.074999999999882
31
0
0
ARC
5
225
100
AcDbEntity
8
0
100
AcDbCircle
10
-33.988000000000049
20
34.074999999999882
30
0
40
0.50000000000000711
210
-0
220
0
230
1
100
AcDbArc
50
90
51
180
0
LINE
5
226
100
AcDbEntity
8
0
100
AcDbLine
10
-33.988000000000049
20
34.574999999999889
30
0
11
-26.05000000000004
21
34.574999999999889
31
0
0
LINE
5
227
100
AcDbEntity
8
0
100
AcDbLine
10
-26.05000000000004
20
34.574999999999889
30
0
11
-26.05000000000004
21
35.074999999999896
31
0
0
ARC
5
228
100
AcDbEntity
8
0
100
AcDbCircle
10
-25.550000000000033
20
35.074999999999896
30
0
40
0.50000000000000711
210
-0
220
0
230
1
100
AcDbArc
50
90
51
180
0
LINE
5
229
100
AcDbEntity
8
0
100
AcDbLine
10
-25.550000000000033
20
35.574999999999903
30
0
11
-12.550000000000043
21
35.574999999999903
31
0
0
ARC
5
230
100
AcDbEntity
8
0
100
AcDbCircle
10
-12.550000000000043
20
35.074999999999896
30
0
40
0.50000000000000711
210
0
220
-0
230
1
100
AcDbArc
50
0
51
90
0
LINE
5
231
100
AcDbEntity
8
0
100
AcDbLine
10
-12.050000000000036
20
35.074999999999896
30
0
11
-12.050000000000036
21
34.574999999999889
31
0
0
LINE
5
232
100
AcDbEntity
8
0
100
AcDbLine
10
-12.050000000000036
20
34.574999999999889
30
0
11
-7.0000000000000639
21
34.574999999999889
31
0
0
LINE
5
233
100
AcDbEntity
8
0
100
AcDbLine
10
-7.0000000000000639
20
34.574999999999889
30
0
11
-7.0000000000000639
21
35.074999999999896
31
0
0
ARC
5
234
100
AcDbEntity
8
0
100
AcDbCircle
10
-6.5000000000000568
20
35.074999999999896
30
0
40
0.50000000000000711
210
-0
220
0
230
1
100
AcDbArc
50
90
51
180
0
LINE
5
235
100
AcDbEntity
8
0
100
AcDbLine
10
-6.5000000000000568
20
35.574999999999903
30
0
11
6.4999999999999503
21
35.574999999999903
31
0
0
ARC
5
236
100
AcDbEntity
8
0
100
AcDbCircle
10
6.4999999999999503
20
35.074999999999896
30
0
40
0.50000000000000711
210
0
220
-0
230
1
100
AcDbArc
50
0
51
90
0
LINE
5
237
100
AcDbEntity
8
0
100
AcDbLine
10
6.9999999999999574
20
35.074999999999896
30
0
11
6.9999999999999396
21
34.574999999999889
31
0
0
LINE
5
238
100
AcDbEntity
8
0
100
AcDbLine
10
6.9999999999999396
20
34.574999999999889
30
0
11
14.431249999999949
21
34.574999999999889
31
0
0
LINE
5
239
100
AcDbEntity
8
0
100
AcDbLine
10
14.431249999999949
20
34.574999999999889
30
0
11
14.431249999999949
21
35.074999999999896
31
0
0
ARC
5
240
100
AcDbEntity
8
0
100
AcDbCircle
10
14.931249999999956
20
35.074999999999896
30
0
40
0.50000000000000711
210
-0
220
0
230
1
100
AcDbArc
50
90
51
180
0
LINE
5
241
100
AcDbEntity
8
0
100
AcDbLine
10
14.931249999999956
20
35.574999999999903
30
0
11
27.931249999999963
21
35.574999999999903
31
0
0
ARC
5
242
100
AcDbEntity
8
0
100
AcDbCircle
10
27.931249999999963
20
35.074999999999896
30
0
40
0.50000000000000711
210
0
220
-0
230
1
100
AcDbArc
50
0
51
90
0
LINE
5
243
100
AcDbEntity
8
0
100
AcDbLine
10
28.43124999999997
20
35.074999999999896
30
0
11
28.431249999999935
21
34.574999999999889
31
0
0
LINE
5
244
100
AcDbEntity
8
0
100
AcDbLine
10
28.431249999999935
20
34.574999999999889
30
0
11
36.369248999999968
21
34.574999999999889
31
0
0
ARC
5
245
100
AcDbEntity
8
0
100
AcDbCircle
10
36.369248999999968
20
34.074999999999882
30
0
40
0.50000000000000711
210
0
220
-0
230
1
100
AcDbArc
50
0
51
90
0
ARC
5
246
100
AcDbEntity
8
0
100
AcDbCircle
10
76.843749999999957
20
16.024999999999885
30
0
40
0.50000000000000711
210
-0
220
0
230
1
100
AcDbArc
50
90
51
180
0
LINE
5
247
100
AcDbEntity
8
0
100
AcDbLine
10
76.343749999999943
20
3.0249999999998778
30
0
11
76.343749999999943
21
16.024999999999885
31
0
0
ARC
5
248
100
AcDbEntity
8
0
100
AcDbCircle
10
76.843749999999957
20
3.0249999999998778
30
0
40
0.50000000000000711
210
0
220
0
230
1
100
AcDbArc
50
180
51
270
0
LINE
5
249
100
AcDbEntity
8
0
100
AcDbLine
10
89.843749999999972
20
2.5249999999999062
30
0
11
76.843749999999957
21
2.5249999999998707
31
0
0
ARC
5
250
100
AcDbEntity
8
0
100
AcDbCircle
10
89.843749999999972
20
3.0249999999998778
30
0
40
0.49999999999997158
210
-0
220
0
230
1
100
AcDbArc
50
-90
51
0
0
LINE
5
251
100
AcDbEntity
8
0
100
AcDbLine
10
90.343749999999972
20
16.024999999999885
30
0
11
90.343749999999943
21
3.0249999999998778
31
0
0
ARC
5
252
100
AcDbEntity
8
0
100
AcDbCircle
10
89.843749999999972
20
16.024999999999885
30
0
40
0.50000000000000711
210
0
220
-0
230
1
100
AcDbArc
50
0
51
90
0
LINE
5
253
100
AcDbEntity
8
0
100
AcDbLine
10
76.843749999999957
20
16.524999999999892
30
0
11
89.843749999999972
21
16.524999999999892
31
0
0
LINE
5
254
100
AcDbEntity
8
0
100
AcDbLine
10
95.106249999999974
20
35.074999999999896
30
0
11
95.106249999999974
21
22.074999999999889
31
0
0
ARC
5
255
100
AcDbEntity
8
0
100
AcDbCircle
10
94.60624999999996
20
22.074999999999889
30
0
40
0.50000000000000711
210
-0
220
0
230
1
100
AcDbArc
50
-90
51
0
0
LINE
5
256
100
AcDbEntity
8
0
100
AcDbLine
10
94.60624999999996
20
21.574999999999882
30
0
11
81.60624999999996
21
21.574999999999882
31
0
0
ARC
5
257
100
AcDbEntity
8
0
100
AcDbCircle
10
81.60624999999996
20
22.074999999999889
30
0
40
0.50000000000000711
210
0
220
0
230
1
100
AcDbArc
50
180
51
270
0
LINE
5
258
100
AcDbEntity
8
0
100
AcDbLine
10
81.10624999999996
20
22.074999999999889
30
0
11
81.10624999999996
21
35.074999999999896
31
0
0
ARC
5
259
100
AcDbEntity
8
0
100
AcDbCircle
10
81.60624999999996
20
35.074999999999896
30
0
40
0.50000000000000711
210
-0
220
0
230
1
100
AcDbArc
50
90
51
180
0
LINE
5
260
100
AcDbEntity
8
0
100
AcDbLine
10
81.60624999999996
20
35.574999999999903
30
0
11
94.60624999999996
21
35.574999999999903
31
0
0
ARC
5
261
100
AcDbEntity
8
0
100
AcDbCircle
10
94.60624999999996
20
35.074999999999896
30
0
40
0.50000000000000711
210
0
220
-0
230
1
100
AcDbArc
50
0
51
90
0
LINE
5
262
100
AcDbEntity
8
0
100
AcDbLine
10
-9.6687500000000526
20
16.024999999999885
30
0
11
-9.6687500000000348
21
3.0249999999998778
31
0
0
ARC
5
263
100
AcDbEntity
8
0
100
AcDbCircle
10
-10.168750000000042
20
3.0249999999998778
30
0
40
0.50000000000000711
210
-0
220
0
230
1
100
AcDbArc
50
-90
51
0
0
LINE
5
264
100
AcDbEntity
8
0
100
AcDbLine
10
-10.168750000000042
20
2.5249999999998707
30
0
11
-23.168750000000049
21
2.5249999999998707
31
0
0
ARC
5
265
100
AcDbEntity
8
0
100
AcDbCircle
10
-23.168750000000049
20
3.0249999999998778
30
0
40
0.50000000000000711
210
0
220
0
230
1
100
AcDbArc
50
180
51
270
0
LINE
5
266
100
AcDbEntity
8
0
100
AcDbLine
10
-23.668750000000056
20
3.0249999999998778
30
0
11
-23.668750000000056
21
16.024999999999885
31
0
0
ARC
5
267
100
AcDbEntity
8
0
100
AcDbCircle
10
-23.168750000000049
20
16.024999999999885
30
0
40
0.50000000000000711
210
-0
220
0
230
1
100
AcDbArc
50
90
51
180
0
LINE
5
268
100
AcDbEntity
8
0
100
AcDbLine
10
-23.168750000000049
20
16.524999999999892
30
0
11
-10.168750000000042
21
16.524999999999874
31
0
0
ARC
5
269
100
AcDbEntity
8
0
100
AcDbCircle
10
-10.168750000000042
20
16.024999999999885
30
0
40
0.49999999999998934
210
0
220
-0
230
1
100
AcDbArc
50
0
51
90
0
LINE
5
270
100
AcDbEntity
8
0
100
AcDbLine
10
18.406249999999957
20
-16.525000000000134
30
0
11
5.4062499999999503
21
-16.525000000000123
31
0
0
ARC
5
271
100
AcDbEntity
8
0
100
AcDbCircle
10
5.4062499999999503
20
-16.025000000000126
30
0
40
0.50000000000000711
210
0
220
0
230
1
100
AcDbArc
50
180
51
270
0
LINE
5
272
100
AcDbEntity
8
0
100
AcDbLine
10
4.9062499999999432
20
-16.025000000000126
30
0
11
4.9062499999999432
21
-3.0250000000001265
31
0
0
ARC
5
273
100
AcDbEntity
8
0
100
AcDbCircle
10
5.4062499999999503
20
-3.0250000000001265
30
0
40
0.50000000000000711
210
-0
220
0
230
1
100
AcDbArc
50
90
51
180
0
LINE
5
274
100
AcDbEntity
8
0
100
AcDbLine
10
5.4062499999999503
20
-2.5250000000001194
30
0
11
18.406249999999957
21
-2.5250000000001194
31
0
0
ARC
5
275
100
AcDbEntity
8
0
100
AcDbCircle
10
18.406249999999957
20
-3.0250000000001265
30
0
40
0.50000000000000711
210
0
220
-0
230
1
100
AcDbArc
50
0
51
90
0
LINE
5
276
100
AcDbEntity
8
0
100
AcDbLine
10
18.906249999999964
20
-3.0250000000001265
30
0
11
18.906249999999964
21
-16.025000000000126
31
0
0
ARC
5
277
100
AcDbEntity
8
0
100
AcDbCircle
10
18.406249999999957
20
-16.025000000000126
30
0
40
0.50000000000000711
210
-0
220
0
230
1
100
AcDbArc
50
-90
51
0
0
ARC
5
278
100
AcDbEntity
8
0
100
AcDbCircle
10
-4.1187500000000377
20
3.0249999999998778
30
0
40
0.50000000000000711
210
0
220
0
230
1
100
AcDbArc
50
180
51
270
0
LINE
5
279
100
AcDbEntity
8
0
100
AcDbLine
10
8.8812499999999517
20
2.5249999999998707
30
0
11
-4.1187500000000377
21
2.5249999999998707
31
0
0
ARC
5
280
100
AcDbEntity
8
0
100
AcDbCircle
10
8.8812499999999517
20
3.0249999999998778
30
0
40
0.50000000000000711
210
-0
220
0
230
1
100
AcDbArc
50
-90
51
0
0
LINE
5
281
100
AcDbEntity
8
0
100
AcDbLine
10
9.3812499999999588
20
16.024999999999885
30
0
11
9.3812499999999588
21
3.0249999999998778
31
0
0
ARC
5
282
100
AcDbEntity
8
0
100
AcDbCircle
10
8.8812499999999517
20
16.024999999999885
30
0
40
0.50000000000000711
210
0
220
-0
230
1
100
AcDbArc
50
0
51
90
0
LINE
5
283
100
AcDbEntity
8
0
100
AcDbLine
10
-4.1187500000000377
20
16.524999999999892
30
0
11
8.8812499999999517
21
16.524999999999892
31
0
0
ARC
5
284
100
AcDbEntity
8
0
100
AcDbCircle
10
-4.1187500000000377
20
16.024999999999885
30
0
40
0.50000000000000711
210
-0
220
0
230
1
100
AcDbArc
50
90
51
180
0
LINE
5
285
100
AcDbEntity
8
0
100
AcDbLine
10
-4.6187500000000448
20
3.0249999999998778
30
0
11
-4.6187500000000448
21
16.024999999999885
31
0
0
ARC
5
286
100
AcDbEntity
8
0
100
AcDbCircle
10
13.643749999999955
20
-35.075000000000117
30
0
40
0.50000000000000711
210
-0
220
0
230
1
100
AcDbArc
50
-90
51
0
0
LINE
5
287
100
AcDbEntity
8
0
100
AcDbLine
10
14.143749999999962
20
-22.075001000000114
30
0
11
14.143749999999962
21
-35.075000000000117
31
0
0
ARC
5
288
100
AcDbEntity
8
0
100
AcDbCircle
10
13.643749999999955
20
-22.075001000000114
30
0
40
0.50000000000000711
210
0
220
-0
230
1
100
AcDbArc
50
0
51
90
0
LINE
5
289
100
AcDbEntity
8
0
100
AcDbLine
10
0.64374999999994742
20
-21.575001000000107
30
0
11
13.643749999999955
21
-21.575001000000114
31
0
0
ARC
5
290
100
AcDbEntity
8
0
100
AcDbCircle
10
0.64374999999994742
20
-22.075001000000114
30
0
40
0.50000000000000711
210
-0
220
0
230
1
100
AcDbArc
50
89.999999999999986
51
180
0
LINE
5
291
100
AcDbEntity
8
0
100
AcDbLine
10
0.14374999999994031
20
-35.075000000000117
30
0
11
0.14374999999994031
21
-22.075001000000114
31
0
0
ARC
5
292
100
AcDbEntity
8
0
100
AcDbCircle
10
0.64374999999994742
20
-35.075000000000117
30
0
40
0.50000000000000711
210
0
220
0
230
1
100
AcDbArc
50
180
51
270
0
LINE
5
293
100
AcDbEntity
8
0
100
AcDbLine
10
13.643749999999955
20
-35.575000000000124
30
0
11
0.64374999999994742
21
-35.575000000000117
31
0
0
ARC
5
294
100
AcDbEntity
8
0
100
AcDbCircle
10
-5.4062500000000568
20
-22.075001000000114
30
0
40
0.50000000000000711
210
0
220
-0
230
1
100
AcDbArc
50
0
51
90
0
LINE
5
295
100
AcDbEntity
8
0
100
AcDbLine
10
-18.406250000000064
20
-21.575001000000107
30
0
11
-5.4062500000000568
21
-21.575001000000114
31
0
0
ARC
5
296
100
AcDbEntity
8
0
100
AcDbCircle
10
-18.406250000000064
20
-22.075001000000114
30
0
40
0.50000000000000711
210
-0
220
0
230
1
100
AcDbArc
50
90
51
180
0
LINE
5
297
100
AcDbEntity
8
0
100
AcDbLine
10
-18.906250000000071
20
-35.075000000000117
30
0
11
-18.906250000000071
21
-22.075001000000114
31
0
0
ARC
5
298
100
AcDbEntity
8
0
100
AcDbCircle
10
-18.406250000000064
20
-35.075000000000117
30
0
40
0.50000000000000711
210
0
220
0
230
1
100
AcDbArc
50
180
51
270
0
LINE
5
299
100
AcDbEntity
8
0
100
AcDbLine
10
-5.4062500000000568
20
-35.575000000000124
30
0
11
-18.406250000000064
21
-35.575000000000117
31
0
0
ARC
5
300
100
AcDbEntity
8
0
100
AcDbCircle
10
-5.4062500000000568
20
-35.075000000000117
30
0
40
0.50000000000000711
210
-0
220
0
230
1
100
AcDbArc
50
-90
51
0
0
LINE
5
301
100
AcDbEntity
8
0
100
AcDbLine
10
-4.9062500000000497
20
-22.075001000000114
30
0
11
-4.9062500000000497
21
-35.075000000000117
31
0
0
ARC
5
302
100
AcDbEntity
8
0
100
AcDbCircle
10
-0.64375000000003624
20
-16.025000000000126
30
0
40
0.50000000000000711
210
0
220
0
230
1
100
AcDbArc
50
-90
51
0
0
LINE
5
303
100
AcDbEntity
8
0
100
AcDbLine
10
-0.14375000000002913
20
-3.0250000000001265
30
0
11
-0.14375000000002913
21
-16.025000000000126
31
0
0
ARC
5
304
100
AcDbEntity
8
0
100
AcDbCircle
10
-0.64375000000003624
20
-3.0250000000001265
30
0
40
0.50000000000000711
210
0
220
-0
230
1
100
AcDbArc
50
0
51
90
0
LINE
5
305
100
AcDbEntity
8
0
100
AcDbLine
10
-13.643750000000043
20
-2.5250000000001194
30
0
11
-0.64375000000003624
21
-2.5250000000001194
31
0
0
ARC
5
306
100
AcDbEntity
8
0
100
AcDbCircle
10
-13.643750000000043
20
-3.0250000000001265
30
0
40
0.50000000000000711
210
-0
220
0
230
1
100
AcDbArc
50
90
51
180
0
LINE
5
307
100
AcDbEntity
8
0
100
AcDbLine
10
-14.143750000000033
20
-16.025000000000126
30
0
11
-14.14375000000005
21
-3.0250000000001265
31
0
0
ARC
5
308
100
AcDbEntity
8
0
100
AcDbCircle
10
-13.643750000000043
20
-16.025000000000126
30
0
40
0.49999999999998934
210
0
220
0
230
1
100
AcDbArc
50
180
51
270
0
LINE
5
309
100
AcDbEntity
8
0
100
AcDbLine
10
-0.64375000000003624
20
-16.525000000000134
30
0
11
-13.643750000000043
21
-16.525000000000123
31
0
0
ARC
5
310
100
AcDbEntity
8
0
100
AcDbCircle
10
46.981249999999974
20
16.024999999999885
30
0
40
0.50000000000000711
210
0
220
-0
230
1
100
AcDbArc
50
0
51
90
0
LINE
5
311
100
AcDbEntity
8
0
100
AcDbLine
10
33.981249999999967
20
16.524999999999892
30
0
11
46.981249999999974
21
16.524999999999892
31
0
0
ARC
5
312
100
AcDbEntity
8
0
100
AcDbCircle
10
33.981249999999967
20
16.024999999999885
30
0
40
0.50000000000000711
210
-0
220
0
230
1
100
AcDbArc
50
90
51
180
0
LINE
5
313
100
AcDbEntity
8
0
100
AcDbLine
10
33.48124999999996
20
3.0249999999998778
30
0
11
33.48124999999996
21
16.024999999999885
31
0
0
ARC
5
314
100
AcDbEntity
8
0
100
AcDbCircle
10
33.981249999999967
20
3.0249999999998778
30
0
40
0.50000000000000711
210
0
220
0
230
1
100
AcDbArc
50
180
51
270
0
LINE
5
315
100
AcDbEntity
8
0
100
AcDbLine
10
46.981249999999974
20
2.5249999999998707
30
0
11
33.981249999999967
21
2.5249999999998707
31
0
0
ARC
5
316
100
AcDbEntity
8
0
100
AcDbCircle
10
46.981249999999974
20
3.0249999999998778
30
0
40
0.50000000000000711
210
-0
220
0
230
1
100
AcDbArc
50
-90
51
0
0
LINE
5
317
100
AcDbEntity
8
0
100
AcDbLine
10
47.481249999999982
20
16.024999999999885
30
0
11
47.481249999999982
21
3.0249999999998778
31
0
0
ARC
5
318
100
AcDbEntity
8
0
100
AcDbCircle
10
14.931249999999956
20
3.0249999999998778
30
0
40
0.50000000000000711
210
0
220
0
230
1
100
AcDbArc
50
180
51
270
0
LINE
5
319
100
AcDbEntity
8
0
100
AcDbLine
10
27.931249999999963
20
2.5249999999998707
30
0
11
14.931249999999956
21
2.5249999999998707
31
0
0
ARC
5
320
100
AcDbEntity
8
0
100
AcDbCircle
10
27.931249999999963
20
3.0249999999998778
30
0
40
0.50000000000000711
210
-0
220
0
230
1
100
AcDbArc
50
-90
51
0
0
LINE
5
321
100
AcDbEntity
8
0
100
AcDbLine
10
28.43124999999997
20
16.024999999999885
30
0
11
28.43124999999997
21
3.0249999999998778
31
0
0
ARC
5
322
100
AcDbEntity
8
0
100
AcDbCircle
10
27.931249999999963
20
16.024999999999885
30
0
40
0.50000000000000711
210
0
220
-0
230
1
100
AcDbArc
50
0
51
90
0
LINE
5
323
100
AcDbEntity
8
0
100
AcDbLine
10
14.931249999999956
20
16.524999999999892
30
0
11
27.931249999999963
21
16.524999999999892
31
0
0
ARC
5
324
100
AcDbEntity
8
0
100
AcDbCircle
10
14.931249999999956
20
16.024999999999885
30
0
40
0.50000000000000711
210
-0
220
0
230
1
100
AcDbArc
50
90
51
180
0
LINE
5
325
100
AcDbEntity
8
0
100
AcDbLine
10
14.431249999999949
20
3.0249999999998778
30
0
11
14.431249999999949
21
16.024999999999885
31
0
0
LINE
5
326
100
AcDbEntity
8
0
100
AcDbLine
10
23.956249999999955
20
-16.025000000000126
30
0
11
23.956249999999955
21
-3.0250000000001265
31
0
0
ARC
5
327
100
AcDbEntity
8
0
100
AcDbCircle
10
24.456249999999962
20
-3.0250000000001265
30
0
40
0.50000000000000711
210
-0
220
0
230
1
100
AcDbArc
50
90
51
180
0
LINE
5
328
100
AcDbEntity
8
0
100
AcDbLine
10
24.456249999999962
20
-2.5250000000001194
30
0
11
37.456249999999969
21
-2.5250000000001194
31
0
0
ARC
5
329
100
AcDbEntity
8
0
100
AcDbCircle
10
37.456249999999969
20
-3.0250000000001265
30
0
40
0.50000000000000711
210
0
220
-0
230
1
100
AcDbArc
50
0
51
90
0
LINE
5
330
100
AcDbEntity
8
0
100
AcDbLine
10
37.956249999999976
20
-3.0250000000001265
30
0
11
37.956249999999976
21
-16.025000000000126
31
0
0
ARC
5
331
100
AcDbEntity
8
0
100
AcDbCircle
10
37.456249999999969
20
-16.025000000000126
30
0
40
0.50000000000000711
210
-0
220
0
230
1
100
AcDbArc
50
-90
51
0
0
LINE
5
332
100
AcDbEntity
8
0
100
AcDbLine
10
37.456249999999969
20
-16.525000000000134
30
0
11
24.456249999999962
21
-16.525000000000123
31
0
0
ARC
5
333
100
AcDbEntity
8
0
100
AcDbCircle
10
24.456249999999962
20
-16.025000000000126
30
0
40
0.50000000000000711
210
0
220
0
230
1
100
AcDbArc
50
180
51
270
0
ARC
5
334
100
AcDbEntity
8
0
100
AcDbCircle
10
70.79374999999996
20
-35.075000000000117
30
0
40
0.50000000000000711
210
-0
220
0
230
1
100
AcDbArc
50
-90
51
0
0
LINE
5
335
100
AcDbEntity
8
0
100
AcDbLine
10
71.29374999999996
20
-22.075001000000114
30
0
11
71.29374999999996
21
-35.075000000000117
31
0
0
ARC
5
336
100
AcDbEntity
8
0
100
AcDbCircle
10
70.79374999999996
20
-22.075001000000114
30
0
40
0.50000000000000711
210
0
220
-0
230
1
100
AcDbArc
50
0
51
90
0
LINE
5
337
100
AcDbEntity
8
0
100
AcDbLine
10
57.793749999999982
20
-21.575001000000107
30
0
11
70.79374999999996
21
-21.575001000000114
31
0
0
ARC
5
338
100
AcDbEntity
8
0
100
AcDbCircle
10
57.793749999999982
20
-22.075001000000114
30
0
40
0.50000000000000711
210
-0
220
0
230
1
100
AcDbArc
50
90
51
180
0
LINE
5
339
100
AcDbEntity
8
0
100
AcDbLine
10
57.293749999999974
20
-35.075000000000117
30
0
11
57.293749999999974
21
-22.075001000000114
31
0
0
ARC
5
340
100
AcDbEntity
8
0
100
AcDbCircle
10
57.793749999999982
20
-35.075000000000117
30
0
40
0.50000000000000711
210
0
220
0
230
1
100
AcDbArc
50
180
51
270
0
LINE
5
341
100
AcDbEntity
8
0
100
AcDbLine
10
70.79374999999996
20
-35.575000000000124
30
0
11
57.793749999999982
21
-35.575000000000117
31
0
0
ARC
5
342
100
AcDbEntity
8
0
100
AcDbCircle
10
38.743749999999935
20
-22.075001000000114
30
0
40
0.49999999999997158
210
-0
220
0
230
1
100
AcDbArc
50
90
51
180
0
LINE
5
343
100
AcDbEntity
8
0
100
AcDbLine
10
38.243749999999928
20
-35.075000000000117
30
0
11
38.243749999999963
21
-22.075001000000114
31
0
0
ARC
5
344
100
AcDbEntity
8
0
100
AcDbCircle
10
38.743749999999935
20
-35.075000000000117
30
0
40
0.50000000000000711
210
0
220
0
230
1
100
AcDbArc
50
180
51
270
0
LINE
5
345
100
AcDbEntity
8
0
100
AcDbLine
10
51.743749999999942
20
-35.575000000000124
30
0
11
38.743749999999935
21
-35.575000000000117
31
0
0
ARC
5
346
100
AcDbEntity
8
0
100
AcDbCircle
10
51.743749999999942
20
-35.075000000000117
30
0
40
0.50000000000000711
210
-0
220
0
230
1
100
AcDbArc
50
-90
51
0
0
LINE
5
347
100
AcDbEntity
8
0
100
AcDbLine
10
52.243749999999949
20
-22.075001000000114
30
0
11
52.243749999999949
21
-35.075000000000117
31
0
0
ARC
5
348
100
AcDbEntity
8
0
100
AcDbCircle
10
51.743749999999942
20
-22.075001000000114
30
0
40
0.50000000000000711
210
0
220
-0
230
1
100
AcDbArc
50
0
51
90
0
LINE
5
349
100
AcDbEntity
8
0
100
AcDbLine
10
38.743749999999935
20
-21.575001000000142
30
0
11
51.743749999999942
21
-21.575001000000114
31
0
0
ARC
5
350
100
AcDbEntity
8
0
100
AcDbCircle
10
56.50624999999998
20
-16.025000000000126
30
0
40
0.50000000000000711
210
-0
220
0
230
1
100
AcDbArc
50
-90
51
0
0
LINE
5
351
100
AcDbEntity
8
0
100
AcDbLine
10
57.006249999999987
20
-3.0250000000001265
30
0
11
57.006249999999987
21
-16.025000000000126
31
0
0
ARC
5
352
100
AcDbEntity
8
0
100
AcDbCircle
10
56.50624999999998
20
-3.0250000000001265
30
0
40
0.50000000000000711
210
0
220
-0
230
1
100
AcDbArc
50
0
51
90
0
LINE
5
353
100
AcDbEntity
8
0
100
AcDbLine
10
43.506249999999973
20
-2.5250000000001194
30
0
11
56.50624999999998
21
-2.5250000000001194
31
0
0
ARC
5
354
100
AcDbEntity
8
0
100
AcDbCircle
10
43.506249999999973
20
-3.0250000000001265
30
0
40
0.50000000000000711
210
-0
220
0
230
1
100
AcDbArc
50
90
51
180
0
LINE
5
355
100
AcDbEntity
8
0
100
AcDbLine
10
43.006249999999966
20
-16.025000000000126
30
0
11
43.006249999999966
21
-3.0250000000001265
31
0
0
ARC
5
356
100
AcDbEntity
8
0
100
AcDbCircle
10
43.506249999999973
20
-16.025000000000126
30
0
40
0.50000000000000711
210
0
220
0
230
1
100
AcDbArc
50
180
51
270
0
LINE
5
357
100
AcDbEntity
8
0
100
AcDbLine
10
56.50624999999998
20
-16.525000000000134
30
0
11
43.506249999999973
21
-16.525000000000123
31
0
0
LINE
5
358
100
AcDbEntity
8
0
100
AcDbLine
10
75.556249999999949
20
-16.525000000000134
30
0
11
62.556249999999949
21
-16.525000000000123
31
0
0
ARC
5
359
100
AcDbEntity
8
0
100
AcDbCircle
10
62.556249999999949
20
-16.025000000000126
30
0
40
0.50000000000000711
210
0
220
0
230
1
100
AcDbArc
50
180
51
270
0
LINE
5
360
100
AcDbEntity
8
0
100
AcDbLine
10
62.056249999999942
20
-16.025000000000126
30
0
11
62.056249999999942
21
-3.0250000000001265
31
0
0
ARC
5
361
100
AcDbEntity
8
0
100
AcDbCircle
10
62.556249999999949
20
-3.0250000000001265
30
0
40
0.50000000000000711
210
-0
220
0
230
1
100
AcDbArc
50
90
51
180
0
LINE
5
362
100
AcDbEntity
8
0
100
AcDbLine
10
62.556249999999949
20
-2.5250000000001194
30
0
11
75.556249999999949
21
-2.5250000000001194
31
0
0
ARC
5
363
100
AcDbEntity
8
0
100
AcDbCircle
10
75.556249999999949
20
-3.0250000000001265
30
0
40
0.50000000000000711
210
0
220
-0
230
1
100
AcDbArc
50
0
51
90
0
LINE
5
364
100
AcDbEntity
8
0
100
AcDbLine
10
76.056249999999963
20
-3.0250000000001265
30
0
11
76.056249999999963
21
-16.025000000000126
31
0
0
ARC
5
365
100
AcDbEntity
8
0
100
AcDbCircle
10
75.556249999999949
20
-16.025000000000126
30
0
40
0.50000000000000711
210
-0
220
0
230
1
100
AcDbArc
50
-90
51
0
0
ARC
5
366
100
AcDbEntity
8
0
100
AcDbCircle
10
52.999999999999936
20
20.074999999999896
30
0
40
0.50000000000000711
210
-0
220
0
230
1
100
AcDbArc
50
-90
51
0
0
LINE
5
367
100
AcDbEntity
8
0
100
AcDbLine
10
53.499999999999943
20
21.574999999999882
30
0
11
53.499999999999943
21
20.074999999999896
31
0
0
LINE
5
368
100
AcDbEntity
8
0
100
AcDbLine
10
56.50624999999998
20
21.574999999999882
30
0
11
53.499999999999943
21
21.574999999999882
31
0
0
ARC
5
369
100
AcDbEntity
8
0
100
AcDbCircle
10
56.50624999999998
20
22.074999999999889
30
0
40
0.50000000000000711
210
-0
220
0
230
1
100
AcDbArc
50
-90
51
0
0
LINE
5
370
100
AcDbEntity
8
0
100
AcDbLine
10
57.006249999999987
20
35.074999999999896
30
0
11
57.006249999999987
21
22.074999999999889
31
0
0
ARC
5
371
100
AcDbEntity
8
0
100
AcDbCircle
10
56.50624999999998
20
35.074999999999896
30
0
40
0.50000000000000711
210
0
220
-0
230
1
100
AcDbArc
50
0
51
90
0
LINE
5
372
100
AcDbEntity
8
0
100
AcDbLine
10
43.506249999999973
20
35.574999999999903
30
0
11
56.50624999999998
21
35.574999999999903
31
0
0
ARC
5
373
100
AcDbEntity
8
0
100
AcDbCircle
10
43.506249999999973
20
35.074999999999896
30
0
40
0.50000000000000711
210
-0
220
0
230
1
100
AcDbArc
50
90
51
180
0
LINE
5
374
100
AcDbEntity
8
0
100
AcDbLine
10
43.006249999999966
20
22.074999999999889
30
0
11
43.006249999999966
21
35.074999999999896
31
0
0
ARC
5
375
100
AcDbEntity
8
0
100
AcDbCircle
10
43.506249999999973
20
22.074999999999889
30
0
40
0.50000000000000711
210
0
220
0
230
1
100
AcDbArc
50
180
51
270
0
LINE
5
376
100
AcDbEntity
8
0
100
AcDbLine
10
46.49999999999995
20
21.574999999999882
30
0
11
43.506249999999973
21
21.574999999999882
31
0
0
LINE
5
377
100
AcDbEntity
8
0
100
AcDbLine
10
46.49999999999995
20
20.074999999999896
30
0
11
46.49999999999995
21
21.574999999999882
31
0
0
ARC
5
378
100
AcDbEntity
8
0
100
AcDbCircle
10
46.999999999999957
20
20.074999999999896
30
0
40
0.50000000000000711
210
0
220
0
230
1
100
AcDbArc
50
180
51
270
0
LINE
5
379
100
AcDbEntity
8
0
100
AcDbLine
10
52.999999999999936
20
19.574999999999889
30
0
11
46.999999999999957
21
19.574999999999889
31
0
0
LINE
5
380
100
AcDbEntity
8
0
100
AcDbLine
10
-32.693750000000051
20
-2.5250000000001194
30
0
11
-19.693750000000048
21
-2.5250000000001194
31
0
0
ARC
5
381
100
AcDbEntity
8
0
100
AcDbCircle
10
-19.693750000000048
20
-3.0250000000001265
30
0
40
0.50000000000000711
210
0
220
-0
230
1
100
AcDbArc
50
0
51
90
0
LINE
5
382
100
AcDbEntity
8
0
100
AcDbLine
10
-19.193750000000041
20
-3.0250000000001265
30
0
11
-19.193750000000041
21
-16.025000000000126
31
0
0
ARC
5
383
100
AcDbEntity
8
0
100
AcDbCircle
10
-19.693750000000048
20
-16.025000000000126
30
0
40
0.50000000000000711
210
-0
220
0
230
1
100
AcDbArc
50
-90
51
0
0
LINE
5
384
100
AcDbEntity
8
0
100
AcDbLine
10
-19.693750000000048
20
-16.525000000000134
30
0
11
-32.693750000000051
21
-16.525000000000123
31
0
0
ARC
5
385
100
AcDbEntity
8
0
100
AcDbCircle
10
-32.693750000000051
20
-16.025000000000126
30
0
40
0.49999999999998934
210
0
220
0
230
1
100
AcDbArc
50
180
51
270
0
LINE
5
386
100
AcDbEntity
8
0
100
AcDbLine
10
-33.193750000000044
20
-16.025000000000126
30
0
11
-33.193750000000065
21
-3.0250000000001265
31
0
0
ARC
5
387
100
AcDbEntity
8
0
100
AcDbCircle
10
-32.693750000000051
20
-3.0250000000001265
30
0
40
0.50000000000000711
210
-0
220
0
230
1
100
AcDbArc
50
90
51
180
0
LINE
5
388
100
AcDbEntity
8
0
100
AcDbLine
10
-43.506250000000044
20
-35.575000000000109
30
0
11
-56.506250000000051
21
-35.575000000000117
31
0
0
ARC
5
389
100
AcDbEntity
8
0
100
AcDbCircle
10
-56.506250000000051
20
-35.075000000000117
30
0
40
0.50000000000000711
210
0
220
0
230
1
100
AcDbArc
50
180
51
270
0
LINE
5
390
100
AcDbEntity
8
0
100
AcDbLine
10
-57.006250000000058
20
-35.075000000000117
30
0
11
-57.006250000000058
21
-22.075001000000114
31
0
0
ARC
5
391
100
AcDbEntity
8
0
100
AcDbCircle
10
-56.506250000000051
20
-22.075001000000114
30
0
40
0.50000000000000711
210
-0
220
0
230
1
100
AcDbArc
50
90
51
180
0
LINE
5
392
100
AcDbEntity
8
0
100
AcDbLine
10
-56.506250000000051
20
-21.575001000000107
30
0
11
-43.506250000000044
21
-21.575001000000114
31
0
0
ARC
5
393
100
AcDbEntity
8
0
100
AcDbCircle
10
-43.506250000000044
20
-22.075001000000114
30
0
40
0.50000000000000711
210
0
220
-0
230
1
100
AcDbArc
50
0
51
90
0
LINE
5
394
100
AcDbEntity
8
0
100
AcDbLine
10
-43.006250000000037
20
-22.075001000000114
30
0
11
-43.006250000000051
21
-35.075000000000117
31
0
0
ARC
5
395
100
AcDbEntity
8
0
100
AcDbCircle
10
-43.506250000000044
20
-35.075000000000117
30
0
40
0.49999999999998934
210
-0
220
0
230
1
100
AcDbArc
50
-90
51
0
0
ARC
5
396
100
AcDbEntity
8
0
100
AcDbCircle
10
-37.45625000000004
20
-35.075000000000117
30
0
40
0.50000000000000711
210
0
220
0
230
1
100
AcDbArc
50
180
51
270
0
LINE
5
397
100
AcDbEntity
8
0
100
AcDbLine
10
-24.456250000000033
20
-35.575000000000124
30
0
11
-37.45625000000004
21
-35.575000000000117
31
0
0
ARC
5
398
100
AcDbEntity
8
0
100
AcDbCircle
10
-24.456250000000033
20
-35.075000000000117
30
0
40
0.50000000000000711
210
-0
220
0
230
1
100
AcDbArc
50
-90
51
0
0
LINE
5
399
100
AcDbEntity
8
0
100
AcDbLine
10
-23.956250000000026
20
-22.075001000000114
30
0
11
-23.956250000000026
21
-35.075000000000117
31
0
0
ARC
5
400
100
AcDbEntity
8
0
100
AcDbCircle
10
-24.456250000000033
20
-22.075001000000114
30
0
40
0.50000000000000711
210
0
220
-0
230
1
100
AcDbArc
50
0
51
90
0
LINE
5
401
100
AcDbEntity
8
0
100
AcDbLine
10
-37.45625000000004
20
-21.575001000000107
30
0
11
-24.456250000000033
21
-21.575001000000114
31
0
0
ARC
5
402
100
AcDbEntity
8
0
100
AcDbCircle
10
-37.45625000000004
20
-22.075001000000114
30
0
40
0.50000000000000711
210
-0
220
0
230
1
100
AcDbArc
50
90
51
180
0
LINE
5
403
100
AcDbEntity
8
0
100
AcDbLine
10
-37.956250000000047
20
-35.075000000000117
30
0
11
-37.956250000000047
21
-22.075001000000114
31
0
0
LINE
5
404
100
AcDbEntity
8
0
100
AcDbLine
10
19.693749999999959
20
-21.575001000000107
30
0
11
32.693748999999954
21
-21.575001000000114
31
0
0
ARC
5
405
100
AcDbEntity
8
0
100
AcDbCircle
10
32.693748999999954
20
-22.075001000000114
30
0
40
0.50000000000000711
210
0
220
-0
230
1
100
AcDbArc
50
0
51
90
0
LINE
5
406
100
AcDbEntity
8
0
100
AcDbLine
10
33.193748999999961
20
-22.075001000000114
30
0
11
33.193748999999961
21
-35.075000000000117
31
0
0
ARC
5
407
100
AcDbEntity
8
0
100
AcDbCircle
10
32.693748999999954
20
-35.075000000000117
30
0
40
0.50000000000000711
210
-0
220
0
230
1
100
AcDbArc
50
-90
51
0
0
LINE
5
408
100
AcDbEntity
8
0
100
AcDbLine
10
32.693748999999954
20
-35.575000000000124
30
0
11
19.693749999999959
21
-35.575000000000117
31
0
0
ARC
5
409
100
AcDbEntity
8
0
100
AcDbCircle
10
19.693749999999959
20
-35.075000000000117
30
0
40
0.50000000000000711
210
0
220
0
230
1
100
AcDbArc
50
180
51
270
0
LINE
5
410
100
AcDbEntity
8
0
100
AcDbLine
10
19.193749999999952
20
-35.075000000000117
30
0
11
19.193749999999952
21
-22.075001000000114
31
0
0
ARC
5
411
100
AcDbEntity
8
0
100
AcDbCircle
10
19.693749999999959
20
-22.075001000000114
30
0
40
0.50000000000000711
210
-0
220
0
230
1
100
AcDbArc
50
90
51
180
0
LINE
5
412
100
AcDbEntity
8
0
100
AcDbLine
10
76.056249999999963
20
35.074999999999896
30
0
11
76.056249999999963
21
22.074999999999889
31
0
0
ARC
5
413
100
AcDbEntity
8
0
100
AcDbCircle
10
75.556249999999949
20
22.074999999999889
30
0
40
0.50000000000000711
210
-0
220
0
230
1
100
AcDbArc
50
-90
51
0
0
LINE
5
414
100
AcDbEntity
8
0
100
AcDbLine
10
75.556249999999949
20
21.574999999999882
30
0
11
62.556249999999949
21
21.574999999999882
31
0
0
ARC
5
415
100
AcDbEntity
8
0
100
AcDbCircle
10
62.556249999999949
20
22.074999999999889
30
0
40
0.50000000000000711
210
0
220
0
230
1
100
AcDbArc
50
180
51
270
0
LINE
5
416
100
AcDbEntity
8
0
100
AcDbLine
10
62.056249999999942
20
22.074999999999889
30
0
11
62.056249999999942
21
35.074999999999896
31
0
0
ARC
5
417
100
AcDbEntity
8
0
100
AcDbCircle
10
62.556249999999949
20
35.074999999999896
30
0
40
0.50000000000000711
210
-0
220
0
230
1
100
AcDbArc
50
90
51
180
0
LINE
5
418
100
AcDbEntity
8
0
100
AcDbLine
10
62.556249999999949
20
35.574999999999903
30
0
11
75.556249999999949
21
35.574999999999903
31
0
0
ARC
5
419
100
AcDbEntity
8
0
100
AcDbCircle
10
75.556249999999949
20
35.074999999999896
30
0
40
0.50000000000000711
210
0
220
-0
230
1
100
AcDbArc
50
0
51
90
0
LINE
5
420
100
AcDbEntity
8
0
100
AcDbLine
10
81.10624999999996
20
-16.025000000000126
30
0
11
81.10624999999996
21
-3.0250000000001265
31
0
0
ARC
5
421
100
AcDbEntity
8
0
100
AcDbCircle
10
81.60624999999996
20
-3.0250000000001265
30
0
40
0.50000000000000711
210
-0
220
0
230
1
100
AcDbArc
50
90
51
180
0
LINE
5
422
100
AcDbEntity
8
0
100
AcDbLine
10
81.60624999999996
20
-2.5250000000001194
30
0
11
94.60624999999996
21
-2.5250000000001194
31
0
0
ARC
5
423
100
AcDbEntity
8
0
100
AcDbCircle
10
94.60624999999996
20
-3.0250000000001265
30
0
40
0.50000000000000711
210
0
220
-0
230
1
100
AcDbArc
50
0
51
90
0
LINE
5
424
100
AcDbEntity
8
0
100
AcDbLine
10
95.106249999999974
20
-3.0250000000001265
30
0
11
95.106249999999974
21
-16.025000000000126
31
0
0
ARC
5
425
100
AcDbEntity
8
0
100
AcDbCircle
10
94.60624999999996
20
-16.025000000000126
30
0
40
0.50000000000000711
210
-0
220
0
230
1
100
AcDbArc
50
-90
51
0
0
LINE
5
426
100
AcDbEntity
8
0
100
AcDbLine
10
94.60624999999996
20
-16.525000000000134
30
0
11
81.60624999999996
21
-16.525000000000123
31
0
0
ARC
5
427
100
AcDbEntity
8
0
100
AcDbCircle
10
81.60624999999996
20
-16.025000000000126
30
0
40
0.50000000000000711
210
0
220
0
230
1
100
AcDbArc
50
180
51
270
0
ARC
5
428
100
AcDbEntity
8
0
100
AcDbCircle
10
79.224999999999966
20
-35.075000000000117
30
0
40
0.50000000000000711
210
0
220
0
230
1
100
AcDbArc
50
180
51
270
0
LINE
5
429
100
AcDbEntity
8
0
100
AcDbLine
10
92.224999999999966
20
-35.575000000000124
30
0
11
79.224999999999966
21
-35.575000000000117
31
0
0
ARC
5
430
100
AcDbEntity
8
0
100
AcDbCircle
10
92.224999999999966
20
-35.075000000000117
30
0
40
0.50000000000000711
210
-0
220
0
230
1
100
AcDbArc
50
-90
51
0
0
LINE
5
431
100
AcDbEntity
8
0
100
AcDbLine
10
92.724999999999966
20
-22.075001000000114
30
0
11
92.724999999999966
21
-35.075000000000117
31
0
0
ARC
5
432
100
AcDbEntity
8
0
100
AcDbCircle
10
92.224999999999966
20
-22.075001000000114
30
0
40
0.50000000000000711
210
0
220
-0
230
1
100
AcDbArc
50
0
51
90
0
LINE
5
433
100
AcDbEntity
8
0
100
AcDbLine
10
79.224999999999966
20
-21.575001000000107
30
0
11
92.224999999999966
21
-21.575001000000114
31
0
0
ARC
5
434
100
AcDbEntity
8
0
100
AcDbCircle
10
79.224999999999966
20
-22.075001000000114
30
0
40
0.50000000000000711
210
-0
220
0
230
1
100
AcDbArc
50
90
51
180
0
LINE
5
435
100
AcDbEntity
8
0
100
AcDbLine
10
78.724999999999952
20
-35.075000000000117
30
0
11
78.724999999999952
21
-22.075001000000114
31
0
0
LINE
5
436
100
AcDbEntity
8
0
100
AcDbLine
10
-101.15625000000001
20
-12.000000000000073
30
0
11
-101.15625000000006
21
-40.625000000000171
31
0
0
ARC
5
437
100
AcDbEntity
8
0
100
AcDbCircle
10
-100.15625000000006
20
-40.625000000000171
30
0
40
0.99999999999999645
210
0
220
0
230
1
100
AcDbArc
50
180
51
270
0
LINE
5
438
100
AcDbEntity
8
0
100
AcDbLine
10
-100.15625000000006
20
-41.625000000000163
30
0
11
-63.549696740689114
21
-41.625000000000171
31
0
0
ARC
5
439
100
AcDbEntity
8
0
100
AcDbCircle
10
-63.549696740689114
20
-43.625000000000178
30
0
40
2.0000000000000058
210
0
220
-0
230
1
100
AcDbArc
50
6.8199670258445799
51
90
0
ARC
5
440
100
AcDbEntity
8
0
100
AcDbCircle
10
-59.578000000000046
20
-43.150000000000134
30
0
40
2.0000000000000244
210
0
220
0
230
1
100
AcDbArc
50
186.81996702584473
51
269.9999999999996
0
LINE
5
441
100
AcDbEntity
8
0
100
AcDbLine
10
-59.57800000000006
20
-45.150000000000162
30
0
11
-53.103000000000051
21
-45.150000000000162
31
0
0
LINE
5
442
100
AcDbEntity
8
0
100
AcDbLine
10
-53.103000000000051
20
-45.150000000000162
30
0
11
-53.103000000000051
21
-43.625000000000171
31
0
0
ARC
5
443
100
AcDbEntity
8
0
100
AcDbCircle
10
-51.578000000000053
20
-43.625000000000171
30
0
40
1.5249999999999986
210
0
220
-0
230
1
100
AcDbArc
50
0
51
180
0
LINE
5
444
100
AcDbEntity
8
0
100
AcDbLine
10
-50.053000000000054
20
-43.625000000000171
30
0
11
-50.053000000000054
21
-45.150000000000162
31
0
0
LINE
5
445
100
AcDbEntity
8
0
100
AcDbLine
10
-50.053000000000054
20
-45.150000000000162
30
0
11
-43.578000000000046
21
-45.150000000000162
31
0
0
ARC
5
446
100
AcDbEntity
8
0
100
AcDbCircle
10
-43.578000000000031
20
-43.150000000000176
30
0
40
1.9999999999999929
210
0
220
0
230
1
100
AcDbArc
50
269.9999999999996
51
353.18003297415635
0
ARC
5
447
100
AcDbEntity
8
0
100
AcDbCircle
10
-39.606303259310991
20
-43.625000000000156
30
0
40
2.0000000000000018
210
-0
220
0
230
1
100
AcDbArc
50
90
51
173.18003297415606
0
LINE
5
448
100
AcDbEntity
8
0
100
AcDbLine
10
-39.606303259310991
20
-41.625000000000156
30
0
11
39.606803259310901
21
-41.625000000000156
31
0
0
ARC
5
449
100
AcDbEntity
8
0
100
AcDbCircle
10
39.606803259310865
20
-43.625000000000192
30
0
40
2.0000000000000426
210
0
220
-0
230
1
100
AcDbArc
50
6.8199670258448482
51
89.999999999998991
0
ARC
5
450
100
AcDbEntity
8
0
100
AcDbCircle
10
43.578499999999991
20
-43.150000000000119
30
0
40
2.000000000000044
210
0
220
0
230
1
100
AcDbArc
50
186.81996702584507
51
269.99999999999898
0
LINE
5
451
100
AcDbEntity
8
0
100
AcDbLine
10
43.578499999999956
20
-45.150000000000162
30
0
11
50.053499999999964
21
-45.150000000000162
31
0
0
LINE
5
452
100
AcDbEntity
8
0
100
AcDbLine
10
50.053499999999964
20
-45.150000000000162
30
0
11
50.053499999999964
21
-43.625000000000171
31
0
0
ARC
5
453
100
AcDbEntity
8
0
100
AcDbCircle
10
51.578499999999963
20
-43.625000000000171
30
0
40
1.5249999999999986
210
0
220
-0
230
1
100
AcDbArc
50
0
51
180
0
LINE
5
454
100
AcDbEntity
8
0
100
AcDbLine
10
53.103499999999961
20
-43.625000000000171
30
0
11
53.103499999999961
21
-45.150000000000162
31
0
0
LINE
5
455
100
AcDbEntity
8
0
100
AcDbLine
10
53.103499999999961
20
-45.150000000000162
30
0
11
59.57849999999997
21
-45.150000000000162
31
0
0
ARC
5
456
100
AcDbEntity
8
0
100
AcDbCircle
10
59.578499999999934
20
-43.150000000000119
30
0
40
2.0000000000000462
210
-0
220
0
230
1
100
AcDbArc
50
270.00000000000102
51
353.18003297415493
0
ARC
5
457
100
AcDbEntity
8
0
100
AcDbCircle
10
63.550196740689024
20
-43.625000000000156
30
0
40
2.0000000000000018
210
-0
220
0
230
1
100
AcDbArc
50
90
51
173.18003297415606
0
LINE
5
458
100
AcDbEntity
8
0
100
AcDbLine
10
63.550196740689024
20
-41.625000000000156
30
0
11
100.15624999999997
21
-41.625000000000156
31
0
0
ARC
5
459
100
AcDbEntity
8
0
100
AcDbCircle
10
100.15625
20
-40.625000000000156
30
0
40
0.99999999999999645
210
0
220
0
230
1
100
AcDbArc
50
-90.000000000001634
51
0
0
LINE
5
460
100
AcDbEntity
8
0
100
AcDbLine
10
101.15624999999997
20
-40.625000000000156
30
0
11
101.15624999999997
21
-12.000000000000073
31
0
0
ARC
5
461
100
AcDbEntity
8
0
100
AcDbCircle
10
103.15624999999997
20
-12.000000000000073
30
0
40
1.9999999999999993
210
0
220
0
230
1
100
AcDbArc
50
96.8199670258428
51
180
0
ARC
5
462
100
AcDbEntity
8
0
100
AcDbCircle
10
102.68124999999995
20
-8.0283032593109738
30
0
40
2.000000000000056
210
-0
220
0
230
1
100
AcDbArc
50
276.81996702584587
51
360
0
LINE
5
463
100
AcDbEntity
8
0
100
AcDbLine
10
104.68125000000001
20
-8.0283032593110182
30
0
11
104.68125000000001
21
-1.5250000000000696
31
0
0
LINE
5
464
100
AcDbEntity
8
0
100
AcDbLine
10
104.68125000000001
20
-1.5250000000000696
30
0
11
103.15624999999994
21
-1.5250000000000163
31
0
0
ARC
5
465
100
AcDbEntity
8
0
100
AcDbCircle
10
103.15624999999997
20
-1.7763568394002505e-14
30
0
40
1.5249999999999986
210
0
220
-0
230
1
100
AcDbArc
50
89.999999999998934
51
269.99999999999892
0
LINE
5
466
100
AcDbEntity
8
0
100
AcDbLine
10
103.15625
20
1.5249999999999808
30
0
11
104.68125000000001
21
1.5249999999999275
31
0
0
LINE
5
467
100
AcDbEntity
8
0
100
AcDbLine
10
104.68125000000001
20
1.5249999999999275
30
0
11
104.68125000000001
21
8.0283032593108672
31
0
0
ARC
5
468
100
AcDbEntity
8
0
100
AcDbCircle
10
102.68124999999998
20
8.0283032593108317
30
0
40
2.0000000000000284
210
0
220
-0
230
1
100
AcDbArc
50
0
51
83.180032974154855
0
ARC
5
469
100
AcDbEntity
8
0
100
AcDbCircle
10
103.15624999999997
20
11.999999999999922
30
0
40
1.9999999999999929
210
0
220
0
230
1
100
AcDbArc
50
180
51
263.1800329741572
0
LINE
5
470
100
AcDbEntity
8
0
100
AcDbLine
10
101.15624999999997
20
11.999999999999922
30
0
11
101.15624999999997
21
40.625000000000156
31
0
0
ARC
5
471
100
AcDbEntity
8
0
100
AcDbCircle
10
100.15624999999997
20
40.625000000000142
30
0
40
1.0000000000000142
210
0
220
-0
230
1
100
AcDbArc
50
0
51
90
0
LINE
5
472
100
AcDbEntity
8
0
100
AcDbLine
10
100.15624999999997
20
41.625000000000156
30
0
11
63.578499999999956
21
41.625000000000142
31
0
0
ARC
5
473
100
AcDbEntity
8
0
100
AcDbCircle
10
63.578499999999956
20
43.625000000000128
30
0
40
2.0000000000000013
210
0
220
0
230
1
100
AcDbArc
50
186.8199670258434
51
270
0
ARC
5
474
100
AcDbEntity
8
0
100
AcDbCircle
10
59.606803259310865
20
43.150000000000134
30
0
40
2.0000000000000409
210
0
220
-0
230
1
100
AcDbArc
50
6.8199670258444742
51
89.999999999998778
0
LINE
5
475
100
AcDbEntity
8
0
100
AcDbLine
10
59.606803259310901
20
45.150000000000183
30
0
11
53.103499999999961
21
45.150000000000162
31
0
0
LINE
5
476
100
AcDbEntity
8
0
100
AcDbLine
10
53.103499999999961
20
45.150000000000162
30
0
11
53.103499999999961
21
43.624999999999318
31
0
0
ARC
5
477
100
AcDbEntity
8
0
100
AcDbCircle
10
51.578499999999963
20
43.624999999999744
30
0
40
1.5249999999999986
210
0
220
0
230
1
100
AcDbArc
50
180
51
360
0
LINE
5
478
100
AcDbEntity
8
0
100
AcDbLine
10
50.053499999999964
20
43.625000000000171
30
0
11
50.053499999999964
21
45.150000000000162
31
0
0
LINE
5
479
100
AcDbEntity
8
0
100
AcDbLine
10
50.053499999999964
20
45.150000000000162
30
0
11
43.578499999999956
21
45.150000000000162
31
0
0
ARC
5
480
100
AcDbEntity
8
0
100
AcDbCircle
10
43.578499999999991
20
43.150000000000134
30
0
40
2.0000000000000284
210
0
220
0
230
1
100
AcDbArc
50
90.000000000001009
51
173.18003297415547
0
ARC
5
481
100
AcDbEntity
8
0
100
AcDbCircle
10
39.606803259310901
20
43.625000000000128
30
0
40
2.0000000000000107
210
-0
220
0
230
1
100
AcDbArc
50
270
51
353.18003297415669
0
LINE
5
482
100
AcDbEntity
8
0
100
AcDbLine
10
39.606803259310901
20
41.625000000000121
30
0
11
-39.606303259310991
21
41.625000000000085
31
0
0
ARC
5
483
100
AcDbEntity
8
0
100
AcDbCircle
10
-39.606303259310991
20
43.625000000000078
30
0
40
1.9999999999999971
210
0
220
0
230
1
100
AcDbArc
50
186.81996702584257
51
270
0
ARC
5
484
100
AcDbEntity
8
0
100
AcDbCircle
10
-43.57800000000001
20
43.150000000000205
30
0
40
1.9999999999999598
210
0
220
-0
230
1
100
AcDbArc
50
6.8199670258420628
51
90.000000000001009
0
LINE
5
485
100
AcDbEntity
8
0
100
AcDbLine
10
-43.578000000000046
20
45.150000000000162
30
0
11
-50.053000000000054
21
45.150000000000162
31
0
0
LINE
5
486
100
AcDbEntity
8
0
100
AcDbLine
10
-50.053000000000054
20
45.150000000000162
30
0
11
-50.053000000000054
21
43.624999999999673
31
0
0
ARC
5
487
100
AcDbEntity
8
0
100
AcDbCircle
10
-51.578000000000053
20
43.624999999999915
30
0
40
1.5249999999999986
210
0
220
0
230
1
100
AcDbArc
50
180
51
360
0
LINE
5
488
100
AcDbEntity
8
0
100
AcDbLine
10
-53.103000000000051
20
43.625000000000171
30
0
11
-53.103000000000051
21
45.150000000000162
31
0
0
LINE
5
489
100
AcDbEntity
8
0
100
AcDbLine
10
-53.103000000000051
20
45.150000000000162
30
0
11
-59.606303259310991
21
45.150000000000162
31
0
0
ARC
5
490
100
AcDbEntity
8
0
100
AcDbCircle
10
-59.606303259310991
20
43.150000000000155
30
0
40
2.0000000000000107
210
-0
220
0
230
1
100
AcDbArc
50
90
51
173.180032974157
0
ARC
5
491
100
AcDbEntity
8
0
100
AcDbCircle
10
-63.578000000000046
20
43.625000000000057
30
0
40
1.9999999999999929
210
-0
220
0
230
1
100
AcDbArc
50
270
51
353.18003297415771
0
LINE
5
492
100
AcDbEntity
8
0
100
AcDbLine
10
-63.578000000000046
20
41.625000000000071
30
0
11
-100.15624999999999
21
41.625000000000071
31
0
0
ARC
5
493
100
AcDbEntity
8
0
100
AcDbCircle
10
-100.15624999999999
20
40.625000000000057
30
0
40
1.0000000000000142
210
-0
220
0
230
1
100
AcDbArc
50
90
51
180
0
LINE
5
494
100
AcDbEntity
8
0
100
AcDbLine
10
-101.15624999999997
20
40.625000000000057
30
0
11
-101.15625000000001
21
11.971696740688991
31
0
0
ARC
5
495
100
AcDbEntity
8
0
100
AcDbCircle
10
-103.15625
20
11.971696740688991
30
0
40
2.0000000000000058
210
-0
220
0
230
1
100
AcDbArc
50
-83.180032974155594
51
0
0
ARC
5
496
100
AcDbEntity
8
0
100
AcDbCircle
10
-102.68124999999998
20
7.9999999999999183
30
0
40
2.0000000000000253
210
0
220
0
230
1
100
AcDbArc
50
96.819967025845145
51
180
0
LINE
5
497
100
AcDbEntity
8
0
100
AcDbLine
10
-104.68125000000001
20
7.9999999999999361
30
0
11
-104.68125000000001
21
1.5249999999999275
31
0
0
LINE
5
498
100
AcDbEntity
8
0
100
AcDbLine
10
-104.68125000000001
20
1.5249999999999275
30
0
11
-103.15625
21
1.5249999999999275
31
0
0
ARC
5
499
100
AcDbEntity
8
0
100
AcDbCircle
10
-103.15625
20
-7.1054273576010019e-14
30
0
40
1.5249999999999986
210
-0
220
0
230
1
100
AcDbArc
50
-90
51
90
0
LINE
5
500
100
AcDbEntity
8
0
100
AcDbLine
10
-103.15625
20
-1.5250000000000696
30
0
11
-104.68125000000001
21
-1.5250000000000696
31
0
0
LINE
5
501
100
AcDbEntity
8
0
100
AcDbLine
10
-104.68125000000001
20
-1.5250000000000696
30
0
11
-104.68125000000001
21
-8.0283032593110271
31
0
0
ARC
5
502
100
AcDbEntity
8
0
100
AcDbCircle
10
-102.68125000000001
20
-8.0283032593110359
30
0
40
1.9999999999999929
210
0
220
0
230
1
100
AcDbArc
50
180
51
263.18003297415521
0
ARC
5
503
100
AcDbEntity
8
0
100
AcDbCircle
10
-103.15625000000003
20
-12.000000000000073
30
0
40
2.0000000000000107
210
0
220
-0
230
1
100
AcDbArc
50
0
51
83.180032974155594
0
ENDSEC
0
SECTION
2
OBJECTS
0
DICTIONARY
5
C
100
AcDbDictionary
3
ACAD_GROUP
350
D
3
ACAD_MLINESTYLE
350
17
0
DICTIONARY
5
D
100
AcDbDictionary
0
DICTIONARY
5
1A
330
C
100
AcDbDictionary
0
DICTIONARY
5
17
100
AcDbDictionary
0
ENDSEC
0
EOF
