0
SECTION
2
HEADER
9
$INSUNITS
70
4
9
$ACADVER
1
AC1014
9
$HANDSEED
5
FFFF
0
ENDSEC
0
SECTION
2
TABLES
0
TABLE
2
VPORT
5
8
100
AcDbSymbolTable
0
ENDTAB
0
TABLE
2
LTYPE
5
5
100
AcDbSymbolTable
0
LTYPE
5
14
100
AcDbSymbolTableRecord
100
AcDbLinetypeTableRecord
2
BYBLOCK
70
0
0
LTYPE
5
15
100
AcDbSymbolTableRecord
100
AcDbLinetypeTableRecord
2
BYLAYER
70
0
0
ENDTAB
0
TABLE
2
LAYER
5
2
100
AcDbSymbolTable
70
2
0
LAYER
5
50
100
AcDbSymbolTableRecord
100
AcDbLayerTableRecord
2
0
70
0
6
CONTINUOUS
0
ENDTAB
0
TABLE
2
STYLE
5
3
100
AcDbSymbolTable
70
1
0
STYLE
5
11
100
AcDbSymbolTableRecord
100
AcDbTextStyleTableRecord
2
STANDARD
70
0
0
ENDTAB
0
TABLE
2
VIEW
5
6
100
AcDbSymbolTable
70
0
0
ENDTAB
0
TABLE
2
UCS
5
7
100
AcDbSymbolTable
70
0
0
ENDTAB
0
TABLE
2
APPID
5
9
100
AcDbSymbolTable
70
2
0
APPID
5
12
100
AcDbSymbolTableRecord
100
AcDbRegAppTableRecord
2
ACAD
70
0
0
ENDTAB
0
TABLE
2
DIMSTYLE
5
A
100
AcDbSymbolTable
70
1
0
ENDTAB
0
TABLE
2
BLOCK_RECORD
5
1
100
AcDbSymbolTable
70
1
0
BLOCK_RECORD
5
1F
100
AcDbSymbolTableRecord
100
AcDbBlockTableRecord
2
*MODEL_SPACE
0
BLOCK_RECORD
5
1B
100
AcDbSymbolTableRecord
100
AcDbBlockTableRecord
2
*PAPER_SPACE
0
ENDTAB
0
ENDSEC
0
SECTION
2
BLOCKS
0
BLOCK
5
20
100
AcDbEntity
100
AcDbBlockBegin
2
*MODEL_SPACE
0
ENDBLK
5
21
100
AcDbEntity
100
AcDbBlockEnd
0
BLOCK
5
1C
100
AcDbEntity
100
AcDbBlockBegin
2
*PAPER_SPACE
0
ENDBLK
5
1D
100
AcDbEntity
100
AcDbBlockEnd
0
ENDSEC
0
SECTION
2
ENTITIES
0
CIRCLE
5
100
100
AcDbEntity
8
0
100
AcDbCircle
10
247.40000000000003
20
128.86175020224488
30
0
40
1.25
210
0
220
-0
230
1
0
CIRCLE
5
101
100
AcDbEntity
8
0
100
AcDbCircle
10
247.40000000000003
20
45.850000000000009
30
0
40
1.25
210
0
220
-0
230
1
0
CIRCLE
5
102
100
AcDbEntity
8
0
100
AcDbCircle
10
56.000000000000021
20
128.86175020224488
30
0
40
1.2499999999999911
210
0
220
-0
230
1
0
CIRCLE
5
103
100
AcDbEntity
8
0
100
AcDbCircle
10
56.000000000000014
20
45.850000000000009
30
0
40
1.25
210
0
220
-0
230
1
0
CIRCLE
5
104
100
AcDbEntity
8
0
100
AcDbCircle
10
151.70000000000002
20
128.79999999999998
30
0
40
1.25
210
0
220
0
230
1
0
CIRCLE
5
105
100
AcDbEntity
8
0
100
AcDbCircle
10
252.70000000000007
20
87.325000000000003
30
0
40
1.25
210
0
220
0
230
1
0
CIRCLE
5
106
100
AcDbEntity
8
0
100
AcDbCircle
10
50.700000000000017
20
87.324999999999989
30
0
40
1.2500000000000089
210
0
220
0
230
1
0
CIRCLE
5
107
100
AcDbEntity
8
0
100
AcDbCircle
10
151.70000000000002
20
45.850000000000009
30
0
40
1.25
210
0
220
0
230
1
0
LWPOLYLINE
5
108
100
AcDbEntity
8
0
100
AcDbPolyline
90
36
70
1
43
0.0
10
57.634373790156474
20
44.786363636363646
42
-0.57249295149378876
10
54.27476459631697
20
44.941120028893494
42
0.1800314885772995
10
52.71500034455925
20
46.33608359749541
42
-0.30861394376776552
10
51.000000000000014
20
48.849999999999987
10
51.000000000000014
20
83.016578015096457
42
0.24539268395661271
10
49.585714285714303
20
85.724728977035795
42
-0.52223296786709439
10
49.585714285714303
20
88.925271022964154
42
0.24539268395660857
10
51.000000000000014
20
91.633421984903521
10
51.000000000000014
20
125.79999999999998
42
-0.30654776104559317
10
52.696047490120009
20
128.30640765995989
42
0.1826364572848492
10
54.259002458113287
20
129.74005969163022
42
-0.58331534163792154
10
57.649949583998968
20
129.90106072863327
42
0.25765415947494869
10
60.188333559381974
20
128.49999999999997
10
147.39157801509651
20
128.5
42
0.24539268395660208
10
150.09972897703585
20
129.91428571428568
42
-0.52223296786709583
10
153.30027102296418
20
129.91428571428568
42
0.2453926839566139
10
156.00842198490352
20
128.5
10
243.21166644061805
20
128.49999999999997
42
0.25765415947494824
10
245.75005041600107
20
129.90106072863324
42
-0.58331534163793353
10
249.14099754188675
20
129.74005969163019
42
0.18263645728484779
10
250.70395250988003
20
128.30640765995986
42
-0.3065477610455915
10
252.40000000000003
20
125.79999999999998
10
252.40000000000003
20
91.633421984903549
42
0.24539268395661834
10
253.81428571428572
20
88.92527102296421
42
-0.52223296786710716
10
253.8142857142858
20
85.724728977035824
42
0.24539268395660818
10
252.40000000000006
20
83.016578015096457
10
252.40000000000006
20
48.850000000000016
42
-0.3086139437677608
10
250.68499965544078
20
46.336083597495431
42
0.1800314885772982
10
249.12523540368309
20
44.941120028893515
42
-0.57249295149379364
10
245.76562620984356
20
44.786363636363646
42
0.25370880488172604
10
243.2512049942182
20
46.150000000000013
10
156.00842198490355
20
46.150000000000006
42
0.24539268395661271
10
153.30027102296418
20
44.735714285714288
42
-0.52223296786709439
10
150.09972897703585
20
44.735714285714288
42
0.24539268395660857
10
147.39157801509648
20
46.150000000000006
10
60.148795005781807
20
46.150000000000006
42
0.25370880488172487
0
CIRCLE
5
109
100
AcDbEntity
8
0
100
AcDbCircle
10
92.200000000000003
20
107.02
30
0
40
1.25
210
0
220
0
230
1
0
CIRCLE
5
110
100
AcDbEntity
8
0
100
AcDbCircle
10
211.20000000000002
20
106.81999999999999
30
0
40
1.25
210
0
220
0
230
1
0
CIRCLE
5
111
100
AcDbEntity
8
0
100
AcDbCircle
10
92.200000000000003
20
68.219999999999999
30
0
40
1.25
210
0
220
0
230
1
0
CIRCLE
5
112
100
AcDbEntity
8
0
100
AcDbCircle
10
211.20000000000002
20
68.420000000000002
30
0
40
1.25
210
0
220
0
230
1
0
ENDSEC
0
SECTION
2
OBJECTS
0
DICTIONARY
5
C
100
AcDbDictionary
3
ACAD_GROUP
350
D
3
ACAD_MLINESTYLE
350
17
0
DICTIONARY
5
D
100
AcDbDictionary
0
DICTIONARY
5
1A
330
C
100
AcDbDictionary
0
DICTIONARY
5
17
100
AcDbDictionary
0
ENDSEC
0
EOF
