0
SECTION
2
HEADER
9
$INSUNITS
70
4
9
$ACADVER
1
AC1014
9
$HANDSEED
5
FFFF
0
ENDSEC
0
SECTION
2
TABLES
0
TABLE
2
VPORT
5
8
100
AcDbSymbolTable
0
ENDTAB
0
TABLE
2
LTYPE
5
5
100
AcDbSymbolTable
0
LTYPE
5
14
100
AcDbSymbolTableRecord
100
AcDbLinetypeTableRecord
2
BYBLOCK
70
0
0
LTYPE
5
15
100
AcDbSymbolTableRecord
100
AcDbLinetypeTableRecord
2
BYLAYER
70
0
0
ENDTAB
0
TABLE
2
LAYER
5
2
100
AcDbSymbolTable
70
2
0
LAYER
5
50
100
AcDbSymbolTableRecord
100
AcDbLayerTableRecord
2
0
70
0
6
CONTINUOUS
0
ENDTAB
0
TABLE
2
STYLE
5
3
100
AcDbSymbolTable
70
1
0
STYLE
5
11
100
AcDbSymbolTableRecord
100
AcDbTextStyleTableRecord
2
STANDARD
70
0
0
ENDTAB
0
TABLE
2
VIEW
5
6
100
AcDbSymbolTable
70
0
0
ENDTAB
0
TABLE
2
UCS
5
7
100
AcDbSymbolTable
70
0
0
ENDTAB
0
TABLE
2
APPID
5
9
100
AcDbSymbolTable
70
2
0
APPID
5
12
100
AcDbSymbolTableRecord
100
AcDbRegAppTableRecord
2
ACAD
70
0
0
ENDTAB
0
TABLE
2
DIMSTYLE
5
A
100
AcDbSymbolTable
70
1
0
ENDTAB
0
TABLE
2
BLOCK_RECORD
5
1
100
AcDbSymbolTable
70
1
0
BLOCK_RECORD
5
1F
100
AcDbSymbolTableRecord
100
AcDbBlockTableRecord
2
*MODEL_SPACE
0
BLOCK_RECORD
5
1B
100
AcDbSymbolTableRecord
100
AcDbBlockTableRecord
2
*PAPER_SPACE
0
ENDTAB
0
ENDSEC
0
SECTION
2
BLOCKS
0
BLOCK
5
20
100
AcDbEntity
100
AcDbBlockBegin
2
*MODEL_SPACE
0
ENDBLK
5
21
100
AcDbEntity
100
AcDbBlockEnd
0
BLOCK
5
1C
100
AcDbEntity
100
AcDbBlockBegin
2
*PAPER_SPACE
0
ENDBLK
5
1D
100
AcDbEntity
100
AcDbBlockEnd
0
ENDSEC
0
SECTION
2
ENTITIES
0
CIRCLE
5
100
100
AcDbEntity
8
0
100
AcDbCircle
10
151.70000000000002
20
128.79999999999998
30
0
40
1.25
210
0
220
0
230
1
0
CIRCLE
5
101
100
AcDbEntity
8
0
100
AcDbCircle
10
252.70000000000007
20
87.325000000000003
30
0
40
1.25
210
0
220
0
230
1
0
CIRCLE
5
102
100
AcDbEntity
8
0
100
AcDbCircle
10
50.700000000000017
20
87.324999999999989
30
0
40
1.2500000000000089
210
0
220
0
230
1
0
CIRCLE
5
103
100
AcDbEntity
8
0
100
AcDbCircle
10
151.70000000000002
20
45.850000000000009
30
0
40
1.25
210
0
220
0
230
1
0
LWPOLYLINE
5
104
100
AcDbEntity
8
0
100
AcDbPolyline
90
24
70
1
43
0.0
10
253.81428571428572
20
88.92527102296421
42
-0.24539268395661837
10
252.40000000000003
20
91.633421984903549
10
252.40000000000003
20
125.79999999999998
42
0.41421356237310081
10
249.69999999999996
20
128.49999999999997
10
156.00842198490352
20
128.5
42
-0.2453926839566139
10
153.30027102296418
20
129.91428571428568
42
0.52223296786709583
10
150.09972897703585
20
129.91428571428568
42
-0.24539268395660202
10
147.39157801509651
20
128.5
10
53.70000000000001
20
128.5
42
0.41421356237309315
10
51.000000000000014
20
125.79999999999998
10
51.000000000000014
20
91.633421984903521
42
-0.2453926839566086
10
49.585714285714303
20
88.925271022964154
42
0.52223296786709439
10
49.585714285714289
20
85.724728977035781
42
-0.24539268395661273
10
51.000000000000014
20
83.016578015096457
10
51.000000000000014
20
48.849999999999987
42
0.41421356237309986
10
53.699999999999989
20
46.150000000000006
10
147.39157801509648
20
46.150000000000006
42
-0.2453926839566086
10
150.09972897703585
20
44.735714285714288
42
0.52223296786709439
10
153.30027102296421
20
44.73571428571428
42
-0.24539268395661273
10
156.00842198490355
20
46.150000000000006
10
249.70000000000005
20
46.150000000000013
42
0.41421356237308926
10
252.40000000000006
20
48.850000000000023
10
252.40000000000006
20
83.016578015096457
42
-0.24539268395660813
10
253.8142857142858
20
85.724728977035824
42
0.52223296786710716
0
CIRCLE
5
105
100
AcDbEntity
8
0
100
AcDbCircle
10
92.200000000000003
20
107.02
30
0
40
1.25
210
0
220
0
230
1
0
CIRCLE
5
106
100
AcDbEntity
8
0
100
AcDbCircle
10
211.20000000000002
20
106.81999999999999
30
0
40
1.25
210
0
220
0
230
1
0
CIRCLE
5
107
100
AcDbEntity
8
0
100
AcDbCircle
10
92.200000000000003
20
68.219999999999999
30
0
40
1.25
210
0
220
0
230
1
0
CIRCLE
5
108
100
AcDbEntity
8
0
100
AcDbCircle
10
211.20000000000002
20
68.420000000000002
30
0
40
1.25
210
0
220
0
230
1
0
ENDSEC
0
SECTION
2
OBJECTS
0
DICTIONARY
5
C
100
AcDbDictionary
3
ACAD_GROUP
350
D
3
ACAD_MLINESTYLE
350
17
0
DICTIONARY
5
D
100
AcDbDictionary
0
DICTIONARY
5
1A
330
C
100
AcDbDictionary
0
DICTIONARY
5
17
100
AcDbDictionary
0
ENDSEC
0
EOF
